<svg xmlns="http://www.w3.org/2000/svg" viewBox="0 0 683.34 895.8"><defs><style>.cls-1{fill:#fff;}</style></defs><title>Recurso 1AnaPic</title><g id="Capa_2" data-name="Capa 2"><g id="Capa_1-2" data-name="Capa 1"><path d="M27.26,725.1c-2.2-1.89-5-3.38-6.51-5.72-6.4-10.14-8.73-21.66-8-33.33,1.54-26.3.07-52-9.82-76.83-1.21-3-1.38-6.47-1.9-9.74-2.53-16,.25-31.66,3.69-47.17,8-36,25.75-67.42,46.51-97.45,12.1-17.51,24.47-35,34.79-53.55,6.54-11.78,9.67-25.48,14.06-38.4,4.11-12.08,8-24.25,11.78-36.42q9.89-31.5,19.59-63.06c9-29.31,25.2-55.06,40.89-81,15.28-25.25,29.55-50.87,35.53-80.1S228.76,50,253.07,32.65C260,27.71,266.25,21.82,272.43,16,281.37,7.5,292.17,3.11,303.88.45c13-3,38.86,9.09,43.52,26.37a24.55,24.55,0,0,1-10.07,26.76c-7.95,5.2-21.64,4.79-29-2.93-8.91-9.34-18.45-7.4-27.05-.42-38.1,31-58.21,70.24-55.51,120.06.23,4.17.54,8.34.83,12.83L301.76,135l1.26.53c-2,2.6-3.49,6-6.08,7.67-20.62,13.37-41.34,26.59-62.28,39.46-6.28,3.86-8.11,8.09-7.45,15.64a478.66,478.66,0,0,1,1.55,48.95c-.48,31.23-1.7,62.45-2.6,93.68-.37,12.76-.85,25.52-1,38.28-.11,8.12,1.19,15.5,10.61,18.56,3.84,1.25,7.24,3.87,10.85,5.86-.37.79-.74,1.58-1.1,2.38L229,399.26l-2.12,1.12c3.27,12.63,5.32,25.74,10.07,37.79,11.94,30.33,34.61,54.08,51.7,81.28,7.17,11.41,13.62,23.29,20.11,35.11,5.58,10.15,13.56,17.09,25,19.19,14.86,2.73,29.8,5.1,44.73,7.42,15.4,2.39,28.42-3.94,40.38-12.37,16.13-11.38,27.83-26.92,38.46-43.32,5.65-8.73,7.38-18.35,6.78-28.5-1.06-18-2.29-35.89-3.34-53.84a74.28,74.28,0,0,1,.42-8.55l2.84-.08,4.62,64.72c8.87-12.57,12.44-26.53,13.23-40.85,1.86-33.81,2.53-67.68,4.21-101.5.68-13.7,2.52-27.36,4.31-41,.75-5.71-.81-8.4-6.66-8.85-3.11-.23-6.16-1.35-9.23-2.07.14-.93.27-1.86.41-2.79l18.27,1.41c-3.55-6.27-8-6.67-12.69-6-4,.55-8,2.11-11.86,1.86-2.76-.17-5.37-2.63-8-4.06,1.79-1.79,3.29-4.18,5.44-5.27,8.82-4.44,18.05-8.12,26.67-12.91,2.49-1.38,3.45-5.52,4.25-9.09-10.66-.73-15.46,7.87-22.31,12.76l-2-2.4c3.66-3.46,7.22-7.05,11-10.32a20.55,20.55,0,0,1,6.62-4.05c6.66-2.19,6.13-6,2.54-11.56-4.27,2.56-8.46,5-12.6,7.55-7.91,4.83-16.93,3.77-23-3.08-1.25-1.42-2.56-4.15-2-5.49a7.6,7.6,0,0,1,5.16-3.77c4.4-.68,9.06.1,13.41-.77,5.24-1.06,10.26-3.22,16.36-5.22-2.1-3.46-3.41-6.16-5.2-8.48-13.11-17.07-26.19-34.17-39.63-51-2.22-2.78-5.88-4.8-9.28-6.18-26.51-10.79-53.15-21.27-79.66-32.09-2-.82-3.61-3.28-4.82-5.33-.92-1.54-.59-3.81-1.42-5.44a92.12,92.12,0,0,0-5-7.83c-2.24,2.21-5,4.11-6.6,6.71-2.74,4.42-4.7,7.24-10.38,2.94-2.33-1.77-7.12-.29-12.07-.29-4.63-10.14,7.09-20.62,2.53-33.76-6.42,8.24-8.75,17.48-14.1,24.93,4.14-10.08,5.42-21.51,13.86-29.65,5.62,2.4,5.62,6.49,4.71,10.93-1.55,7.55-3.1,15.1-4.44,21.59l15.62,2.55c.75-1.24,2.16-3.88,3.86-6.31,4.21-6,11.59-5.88,12.85.94,2.07,11.32,10.16,14,18.85,17.53,22.6,9.11,44.9,19,67.54,28,11.71,4.66,19.24,13.56,26.14,23.2,9.24,12.9,18.09,26.09,26.83,39.33,2.89,4.37,5,5.16,10.12,2.42,15.55-8.34,31-6.18,45.85,2.64.67.4.95,1.44,2.37,3.72-6.92-1.2-12.45-2.2-18-3.13-11.64-1.93-21.12,4.08-30.63,9.09-1.54.81-1.14,6.44-.56,9.65.27,1.45,3.17,3.45,4.88,3.44,13.53-.05,25.63,3,35.27,13.39,1.62,1.75,5.21,1.75,7.93,2.36,3.06.69,6.17,1.16,10.94,2-11.4,5.76-20.63,11.39-30.56,15.18-9.68,3.69-20.07,5.49-31.4,8.45,15.28,6.33,28.84-2.33,42.65-2.28l.44,2.63c-10.39,2-20.76,4.1-31.17,6a20.42,20.42,0,0,1-6.38-.13c-5.1-.74-6.94,1.36-7.69,6.47a667.48,667.48,0,0,0-7,94.84c-.05,18,.22,36.09-1.6,53.93-1.06,10.32-4.84,20.81-9.44,30.22-6.11,12.5-9.12,25-8.47,38.89,2.86,61.5,4.24,123.09,8.27,184.51,2.22,33.94,14.79,66,25.6,98.09,8.08,24,15.9,48.13,23.72,72.24.65,2,.48,4.28.69,6.44l-2,.62a34.63,34.63,0,0,1-2.52-5c-14.82-46.73-30.79-93.15-43.81-140.37-5.9-21.42-7.22-44.39-8.38-66.78-2.64-50.84-3.88-101.76-5.71-152.64-.06-1.78-.36-3.54-.69-6.75-4.16,6.06-7.36,11-10.8,15.7-13.29,18.27-29,34.06-50.22,42.61-7.3,2.94-16.18,3-24.28,2.72-19.46-.68-38.7-3.52-56.57-11.83A31.51,31.51,0,0,1,310,564.26c-6-7.82-11.1-16.31-17.41-25.79-.59,4.81-1.09,8.4-1.47,12-3.25,31.55-6.32,63.13-9.76,94.67-3,27.2-16.36,50.1-30.55,72.68-15.48,24.65-31.06,49.25-45.81,74.34-6.93,11.79-12,24.67-18,37-1,2-2.26,3.79-3.4,5.68l-2-.76A53.3,53.3,0,0,1,183.8,827c16.35-35.57,34.13-70.37,57.48-102,28.57-38.65,39.37-82.86,42.07-129.86,1-18.21,2.41-36.43,4.71-54.51,1.88-14.77-6.67-24.2-13.64-34.11-1.07,8.56-.72,17.58-3.64,25.37-2.28,6.09-7.87,11.7-13.35,15.65-6.59,4.76-13.52,2.19-18.41-4.5-7.82-10.69-16.35-20.91-23.42-32.06a85.85,85.85,0,0,1-9.94-23.25c-7.65-28.05-11-56.23-.24-84.48,2.86-7.51,6.26-13.46,15.75-12.19,0-65.95,6.41-131.32,2.11-197.45-6.68,2.15-8.52,6.17-7.5,11.67.73,4,2.12,7.78,2.78,11.74.23,1.45-.8,3.12-1.26,4.69-1.13-1.2-2.72-2.22-3.3-3.64-1.06-2.61-1.21-5.59-2.28-8.19-3-7.21-1.07-13.1,4.86-17.55s6.74-10.09,6.17-16.92c-4.23-51.31,15.11-92.83,53.05-126.5,1.24-1.1,2.57-2.1,3.89-3.1,10.87-8.17,20.61-7.83,30.76,1C318.56,54,328.2,55.38,335,50.48c8.32-6,10.74-15.68,6.47-26-5.79-14-25.55-24.74-39.83-19.78-9.59,3.33-18.56,9.09-27,15-9.27,6.48-17.52,14.42-26.34,21.56C230.91,55.32,220,73.65,214.73,95.12c-7.46,30.4-18.55,59.06-36,85.25a385.5,385.5,0,0,0-53.82,121.5c-3.92,15.74-11.4,30.56-16.78,46a142.32,142.32,0,0,0-6.32,23.87C99,388.57,90.75,403,82.07,417c-9.69,15.67-21.16,30.24-31.46,45.55C24.87,500.84,5.34,541.48,5.18,588.87a78.19,78.19,0,0,0,4.1,23.6,161.35,161.35,0,0,1,7.93,59.4c-.72,12.52,1.9,25.35,4.05,37.86.83,4.78,4.54,9.07,6.94,13.58ZM221.92,513.49l1.92-.83c-8.46-26.32-8.77-53.63-11.19-80.71a3.72,3.72,0,0,1,1.81,3c3.32,24.56,4,49.53,12,73.35,2.7,8,5.35,15.74,13.91,19.87-4.09,6.77.17,11.69,4.56,14.36,3.22,2,9,1.32,13-.13,3.09-1.13,5.92-4.91,7.38-8.17,7.19-16.09,5.94-32.43-3.74-46.58-18.18-26.59-35.3-53.27-37.72-86.64-.16-2.16-2.61-5.39-4.55-5.85-2.09-.51-5.39,1.08-7.12,2.8-1.88,1.86-2.83,4.84-3.72,7.49-10.84,32.14-5.25,63.53,5,94.53C215,504.9,219,509,221.92,513.49Zm309.79-225.9c-8.25-2.3-15.37-4.63-22.66-6.15-2.71-.57-7.56-.17-8.4,1.4-1.86,3.51-2,8-2.4,12.18-.06.6,2,2.07,3.09,2.06C512,296.92,522.49,295.91,531.71,287.59Zm-30.28-12.21c9.23-6,17.45-3,25.52,1.4.41.22,1,.58,1.3.46,1.56-.58,3.07-1.3,4.6-2-.76-1.29-1.26-3.37-2.34-3.74-6.85-2.29-13.73-4.7-20.8-6.08C504.12,264.35,500,266.51,501.43,275.38Zm-5.08,5.69-15.9,5.59-.12,2.09,13.07,8.08C494.43,291.34,495.17,287.36,496.35,281.07Zm24.13-44.22c-9.1-2.48-19,.84-25.43,9.11Zm-29.12,11.76c-9.37-1.91-13.08.53-15.24,9.35Zm35.65,34c-8.25-7.6-11.23-8.28-18.42-5.08Z"/><path d="M680.86,818.54c-.63-3.08-1.53-6.13-1.86-9.23-5-46.61-8.82-93.36-15.23-139.76-2.85-20.65-10.53-40.68-16.54-60.84-4.59-15.41-11-30.34-14.76-45.94-3.86-16-6-32.54-7.94-48.94C615.84,441.9,607.5,369.94,599,298c-3.89-32.9-7.16-65.9-12.1-98.65s-14.64-64.15-32.32-92.62c-5.12-8.24-10-16.61-15.14-24.88-8.59-13.93-20-24.5-35.77-29.89a27.83,27.83,0,0,1-4.39-2.43l.68-2A49.55,49.55,0,0,1,506,48.87c14.34,5.05,25.61,14.28,34.21,26.59,24.88,35.64,42.43,74.59,49.21,117.62,5.34,33.89,8.8,68.07,13,102.14,4.76,38.53,9.53,77.06,14.08,115.61,4.91,41.61,8.79,83.37,14.68,124.84a253.7,253.7,0,0,0,14.27,56.23c13.55,34.72,22.64,70,25.49,107.26,2.91,38.21,8.17,76.23,12.33,114.34.18,1.62-.43,3.32-.67,5Z"/><path d="M413.12,486.63a1.36,1.36,0,0,1-1.12,1,7.33,7.33,0,0,1-3.15.08c-12.57-4.05-24.81-2.1-36.79,2.24-8.83,3.2-16.6,3.33-25.76-1-6.65-3.11-15.63-1.09-23.54-1.72-3.58-.29-7.4-.87-10.48-2.5-1-.52-1.26-2.29-1.24-4.32a1.37,1.37,0,0,1,2.22-1c4.32,3.49,8.18,1.22,12.27-1.16,10.22-5.94,20.75-10.42,32.92-5.7a7.05,7.05,0,0,0,4.84-.29c12.69-5.41,23.37.42,34.19,5.81,3.78,1.89,7.71,3.49,11.56,5.25,1.16.54,2.28,1.13,3.41,1.72a1.36,1.36,0,0,1,.67,1.6Zm-78.31-5.13h54.66a2.29,2.29,0,0,0,1.64-1.9h0a1.36,1.36,0,0,0-1.31-1.42c-9.14-.37-11.5-5.2-27.43-1.11-3.48-.13-7.32.81-10.39-.35-6.79-2.56-12.38-1-17.81,1.88C332.92,479.27,333.4,481.17,334.81,481.5Zm38.11,3.1,0-.15a1.37,1.37,0,0,0-1.53-1.19l-16.66,2.2a1.37,1.37,0,0,0-.37,2.6c6.75,3,12.09-.63,17.56-2A1.35,1.35,0,0,0,372.92,484.6Z"/><path d="M332.45,414.75c4.41.27,9.07-.26,13.17,1,6.09,1.87,8.64-.21,10.16-5.82.74-2.73,2.56-5.17,3.89-7.74l2.14.73c-.66,2.18-1,4.52-2,6.52-3.21,6.36-1.42,10.85,4.63,14.09,1.87,1,3.62,2.24,5.42,3.36,3.35,2.08,4.88,4.15,1.41,7.81-1,1.09-.53,4.12.07,6,.23.73,3.75,1.35,3.93,1a15.81,15.81,0,0,0,1.73-5.65c.27-2.34.06-4.73.06-8.69,9.27,7.72,13,7.45,21.14.69,5.21-4.3,10.64-4.3,16.64,1.51,1-4.92,1.82-8.59,2.63-12.45,5.1,5.08,2.7,14.35-4.07,15.9s-13.59,1.91-20.2,3.59c-4.28,1.09-8.93,2.8-12.12,5.67-6.73,6.06-12.66,5-14.77-4.14-1.24-5.41-3.7-7-8.88-7.93a94.93,94.93,0,0,1-20.1-6.11c-2.68-1.11-4.41-4.52-6.58-6.88Z"/><path d="M262.63,311.81c1.31-2.7,1.9-6.36,4-7.92,9.24-6.74,18.32-14.2,28.61-18.86,10.9-4.93,21.5,2,31.9,5.42,4.25,1.41,8.26,3.56,12.51,4.95,2.89.94,6.22.65,9,1.81,2.06.87,4.76,3.11,4.88,4.89s-2.16,5.12-4,5.63a28.69,28.69,0,0,1-12.21.85c-10-1.75-19.78-4.31-29.67-6.49-9.3-2-17.59.51-25.76,5-5.55,3.05-11.71,5-17.6,7.43Zm55.58-19.88c-19.09-7.56-34.43-3-47.58,14.1C286.67,299.8,301,290.86,318.21,291.93Zm-12.66,2.82-.14,2.37c12.26,2.94,24.47,6.11,36.82,8.64,2.65.54,5.77-1.22,8.68-1.92l-.15-3.38Z"/><path d="M339.35,342.37c.75-10.23-3.88-13-10.68-14.69-14.12-3.47-28.1-7.15-42.26-.44-1.45.68-2.86,1.45-5,2.55,6.08,10.22,13.81,18,25.08,20.69s21.53-1.37,31.34-9.23c.11,9-5.18,12.08-10.85,13.26-13.93,2.9-28.38,5.52-39.3-7.2-4.17-4.87-7.06-10.94-9.85-16.79-.5-1.06,2-5,3.7-5.41,8.64-2.07,17.51-4.94,26.21-4.66,12.67.42,25.42,2.91,35.68,11.61,1.6,1.35,3.65,4.26,3.15,5.48C345.84,339.27,343,340.12,339.35,342.37Z"/><path d="M588.48,360.42c1.72,3.72,4.12,7.28,5,11.19,5.36,22.67,8.74,45.48,2.25,68.57-.38,1.36-.17,3.22-1,4.06-3.21,3.19-7,8.78-10.08,8.48-5.77-.56-3.39-7-2.65-10.61,4.92-23.79,2.73-47.51.39-71.31-.33-3.35,1.4-6.9,2.18-10.35Zm-1.39,86.68c11.69-6.62,12.07-67,0-78.27Z"/><path d="M409.38,492.49c-1.59,2-2.81,5.27-4.82,5.88-14.83,4.48-29.35,10.76-45.4,9.27A10.42,10.42,0,0,1,353,505C372.37,504.79,390.25,499.79,409.38,492.49Z"/><path d="M343,323.33c5.86,1.73,13,10.54,13.42,16.62.46,6.6-4,9.24-9.16,11.9-3.89,2-7.08,5.38-10.56,8.18-3.31,2.65-6.69,4.35-10.71,1.22,7.84-5.11,15.74-9.74,22.95-15.28,1.92-1.47,3.08-6.19,2.21-8.55C349.36,332.53,346,328.22,343,323.33Z"/><path d="M331,320.24l-17.09-4.14C321.12,312.7,325.88,313.93,331,320.24Z"/><path class="cls-1" d="M531.71,287.59c-9.22,8.32-19.7,9.33-30.37,9.49-1.07,0-3.15-1.46-3.09-2.06.44-4.15.54-8.67,2.4-12.18.84-1.57,5.69-2,8.4-1.4C516.34,283,523.46,285.29,531.71,287.59Z"/><path class="cls-1" d="M496.35,281.07c-1.18,6.29-1.92,10.27-3,15.76l-13.07-8.08.12-2.09Z"/><path class="cls-1" d="M587.09,447.1V368.83C599.16,380.08,598.78,440.48,587.09,447.1Z"/></g></g></svg>