<svg xmlns="http://www.w3.org/2000/svg" viewBox="0 0 645.62 927.49"><defs><style>.cls-1{fill:#fff;}</style></defs><title>43LjwQ.tifanilla</title><g id="Capa_2" data-name="Capa 2"><g id="anilla"><g id="_43LjwQ.tif" data-name="43LjwQ.tif"><path class="cls-1" d="M31.66,529.43C21.11,460.59,5.22,392.06,1.21,322.84-5.71,203.32,13.61,88.7,148.63,31.94,249.05-10.27,352.25-15.33,449.44,45.36c62.2,38.84,98.77,97.12,114.21,168.14,24.61,113.14,47.74,226.61,72,339.81,12.56,58.5,13,116.84,2.33,175.62C624.07,805.38,573,849.28,509,885.79c-96.76,55.24-195.73,49-297,19.23-57.87-17-93.3-60.87-123.21-109a202.86,202.86,0,0,1-26.48-68.62c-12.17-65.64-20.94-131.91-31-197.93Zm37.79-4.54-.2,0c10.33,67.43,20.47,134.89,31.18,202.26,1.65,10.34,4.22,21.23,9.27,30.23,39.69,70.63,94.18,120.52,179.82,126.1,25.49,1.66,50.86,5.31,76.35,7,10.45.68,22,.91,31.48-2.78,38.28-15,77.22-29.08,113.52-48.08,52.9-27.69,83.29-72.76,92.46-132.8A393.65,393.65,0,0,0,599.26,565c-24-114-48.55-227.86-72.69-341.82C511,149.42,470.07,95.31,401.27,63.94c-75.5-34.41-152.22-30.51-228.14-1.77S52.77,147,43.44,227.2c-4.62,39.73-4.34,80.77-.31,120.61C49.13,407.12,60.42,465.89,69.45,524.89Z"/><path class="cls-1" d="M473.59,275.25c.94,35.43,1.65,56.51-3.41,87C457.94,436.05,405.48,472.13,339.86,494c-60,20-113.56,7-160.65-33.91-49.09-42.64-78.48-96.48-76.69-161.86,1.85-67.62,69.26-105.78,131.1-77.91,31.45,14.17,58.45,9.38,82.8-13.49,26.75-25.11,59.23-33.52,94.68-27.22,31.8,5.65,47.18,29.5,55.82,58.15,3,10.1,3.45,21,5.06,31.51C473.69,269.33,471.89,275.2,473.59,275.25ZM310.23,461.1c124-21.66,145.35-122,116.19-220.14-2.6-8.76-12.08-18.31-20.69-21.9-21.35-8.91-55.28,5.25-70.28,23.74-6.4,7.89-16.88,14.08-26.72,17.18a152.93,152.93,0,0,1-44,7.2c-13.56.12-28.7-1.09-40.39-7.08-19.66-10.08-38-16.81-57.74-3.1-21.1,14.68-31.78,35.9-25.52,60.89,6,23.81,14,47.93,25.9,69.27C199,444.65,251.48,470.44,310.23,461.1Z"/><path class="cls-1" d="M346.59,597.1c37.29-6.37,68.8-11.59,103.05-11.35,47.5.32,82,21.94,96.35,59.54a200.33,200.33,0,0,1,12.64,79.65c-2.1,45.22-30.8,76.46-81.21,96.16C414,845.88,351,850.5,284.28,843.74c-98.1-10-127.09-99.92-106.41-156,16.56-44.86,51.65-70.32,103.61-80,21.61-4,43.4-7.15,65.11-10.68Zm7.08,33.44.12.72c-26.61,4.33-54.14,6.1-79.5,13.86-17.64,5.4-36.68,16.44-47.51,29.45-36.07,43.35-17.2,128.42,66,136.77,53.87,5.4,105.92,3.68,158.5-15.33,50.79-18.37,72.48-39.53,70.52-86.16-.83-20-7.21-40.59-16.47-58.68-13.24-25.84-40.14-37-73.87-33C405.41,621.15,379.59,626.33,353.67,630.54Z"/><path class="cls-1" d="M261,57.71c72.42-8.53,139.54,16.69,195,74.14,3.44,3.55,8.7,7.56,8.91,11.57.46,8.8,1.25,21.56-3.77,25.55s-19,1.78-25.34-2.8c-19.43-14-35.32-33.46-55.73-45.41C287.38,66.47,176.2,98.67,121.42,194c-2.12,3.69-3,9.37-6.13,11-8.39,4.3-18.75,11.15-26.34,9.21-12.58-3.23-13.63-16.22-7-26.3,14.36-21.84,28.2-44.49,45.69-63.69C161.24,87.26,204.14,66,261,57.71Z"/></g></g></g></svg>