<svg xmlns="http://www.w3.org/2000/svg" viewBox="0 0 406.05 259.34"><title>behancerrss_</title><g id="Capa_2" data-name="Capa 2"><g id="Capa_1-2" data-name="Capa 1"><g id="behance"><path d="M0,252V.86A41.45,41.45,0,0,1,5.66.09c43,.31,86.16-1,129.06,1.48,50.21,3,72.18,38.05,61.34,83.83C194,94.33,185.88,102,180,109.8c-2.22,3-6,4.71-9.66,7.45,5.18,3.28,9.95,5.82,14.19,9.06,22.88,17.44,29.66,53.24,15.73,82.76-12.71,27-34.92,41.55-63.81,42.51C91.37,253.08,46.21,252,0,252ZM51.08,207.5c25.77,0,50.61,1.18,75.28-.37,19.7-1.24,28-15.11,26.67-38.88-.8-14.24-13.21-24.72-30.46-25.07-21.8-.44-43.6-.45-65.41-.57a40.9,40.9,0,0,0-6.08.85ZM50.76,99.18c24.28,0,47.29.71,70.23-.24,17-.7,26.35-10.12,26.71-23.94.52-19.68-5-27-25-29.25-14.09-1.56-28.43-.85-42.66-1-9.57-.12-19.14,0-29.23,0V99.18Z"/><path d="M404.2,198.39c-2.48,16.65-12,28.15-22.95,38.82-32.18,31.41-107,30.39-140-9.49-11.7-14.14-17-30.68-18.75-48.33-2-20-1.18-40,5-59.35,12.51-39.22,50-62.18,94.92-58.34,51.95,4.45,81.8,35.89,83.52,88.1.25,7.53,0,15.08,0,24.35H271.75c-.24,20.83,10.94,37.21,28.06,42.85,20.22,6.66,39.92,1.15,51.72-13.77a15.35,15.35,0,0,1,10-5.32c13-.61,26-.24,39.08-.19A24.81,24.81,0,0,1,404.2,198.39ZM355.67,140c-4.27-27.7-21.56-40.58-48.79-37.49C288,104.62,272.62,122,273.82,140Z"/><path d="M256.72,39.87V15.46H365.18V39.87Z"/></g></g></g></svg>