<svg xmlns="http://www.w3.org/2000/svg" viewBox="0 0 383.83 383.83"><defs><style>.cls-1{stroke:#1d1d1b;stroke-miterlimit:10;stroke-width:6px;}</style></defs><title>Recurso 1rrss_</title><g id="Capa_2" data-name="Capa 2"><g id="Capa_1-2" data-name="Capa 1"><path class="cls-1" d="M380.82,192.05c0,25.78,0,51.56,0,77.34a109,109,0,0,1-22.64,67.12A110.49,110.49,0,0,1,303,375.62a96.2,96.2,0,0,1-23,4.64c-3.55.26-7.1.53-10.65.53q-77.61,0-155.23,0a108.46,108.46,0,0,1-59.75-17.73A110.88,110.88,0,0,1,14.28,318,104.09,104.09,0,0,1,4.11,284.17a121.69,121.69,0,0,1-1-14.39q-.1-78.15,0-156.3A107.77,107.77,0,0,1,14.44,65.59,112.1,112.1,0,0,1,91.71,5.43,116,116,0,0,1,116,3c51.69,0,103.39-.07,155.09.06a106.54,106.54,0,0,1,44.79,10.19,111,111,0,0,1,33.55,23.81,109.76,109.76,0,0,1,28.83,53.59,149.29,149.29,0,0,1,2.29,16.49,105.25,105.25,0,0,1,.3,10.66Q380.85,154.94,380.82,192.05ZM191.88,363.6q38,0,76,0a98,98,0,0,0,22.47-2.33,94.52,94.52,0,0,0,62.9-48.91,94.9,94.9,0,0,0,10.39-44.06q-.09-76.4,0-152.79a97.33,97.33,0,0,0-3.3-25.7,94.25,94.25,0,0,0-55.38-62.61,85.83,85.83,0,0,0-32.31-6.85c-52.73-.15-105.47-.07-158.2-.09a94.15,94.15,0,0,0-17.16,1.6A94.31,94.31,0,0,0,27.43,78.44c-4.34,10.47-7,21.39-7,32.7-.16,52.51-.08,105-.11,157.52a96.77,96.77,0,0,0,2.21,21A94.26,94.26,0,0,0,78,356.26a88.45,88.45,0,0,0,25.11,6.64,156.4,156.4,0,0,0,15.91.67C143.29,363.64,167.59,363.6,191.88,363.6Z"/><path class="cls-1" d="M191.91,286.42a94.47,94.47,0,1,1,.14-188.94c52.36,0,94.52,42.75,94.38,94.9C286.3,244.08,243.77,286.45,191.91,286.42ZM269.16,192a77.23,77.23,0,1,0-77.58,77.19A77,77,0,0,0,269.16,192Z"/><path d="M295,106.08a17.19,17.19,0,1,1,17.18-17.47C312.36,97.82,304.69,106.22,295,106.08Z"/></g></g></svg>