<?xml version="1.0" encoding="utf-8"?>
<!-- Generator: Adobe Illustrator 21.0.2, SVG Export Plug-In . SVG Version: 6.00 Build 0)  -->
<svg version="1.1" id="logo-min" xmlns="http://www.w3.org/2000/svg" xmlns:xlink="http://www.w3.org/1999/xlink" x="0px" y="0px"
	 viewBox="0 0 28 42" style="enable-background:new 0 0 28 42;" xml:space="preserve">
<style type="text/css">
	.st0{fill:none;stroke:#000000;stroke-width:2;stroke-linecap:round;stroke-linejoin:round;stroke-miterlimit:10;}
</style>
<g id="icono_inicio_11_">
	<path class="st0" d="M14.5,40.2H3.2C2,40.2,1,39.2,1,38V12c0-1.2,1-2.2,2.2-2.2h11.4c1.2,0,2.2,1,2.2,2.2v26
		C16.7,39.2,15.7,40.2,14.5,40.2z"/>
	<path class="st0" d="M19.8,36.4H8.4c-1.2,0-2.2-1-2.2-2.2v-26c0-1.2,1-2.2,2.2-2.2h11.4c1.2,0,2.2,1,2.2,2.2v26
		C21.9,35.4,21,36.4,19.8,36.4z"/>
	<path class="st0" d="M24.8,32.2H13.5c-1.2,0-2.2-1-2.2-2.2v-26c0-1.2,1-2.2,2.2-2.2h11.4c1.2,0,2.2,1,2.2,2.2v26
		C27,31.2,26,32.2,24.8,32.2z"/>
</g>
</svg>
