<?xml version="1.0" encoding="utf-8"?>
<!-- Generator: Adobe Illustrator 21.0.2, SVG Export Plug-In . SVG Version: 6.00 Build 0)  -->
<svg version="1.1" id="logo-completo" xmlns="http://www.w3.org/2000/svg" xmlns:xlink="http://www.w3.org/1999/xlink" x="0px"
	 y="0px" viewBox="0 0 88 41" style="enable-background:new 0 0 88 41;" xml:space="preserve">
<path d="M30.9,0c0.3,0.1,0.4,0.4,0.4,0.7c0,10.8,0,21.5,0,32.3c0,0.5-0.1,0.7-0.7,0.7c-0.8,0-1.5,0-2.3,0c-0.1,0-0.2,0-0.3,0
	c0,0.4,0,0.9,0,1.3c0,0.4-0.2,0.6-0.6,0.6c-0.9,0-1.8,0-2.7,0c0,0.3,0,0.7,0,1c0,0.9-0.2,0.9-0.9,0.9c-0.8,0-1.6,0-2.4,0
	c0,0.3,0,0.5,0,0.8c0,0.2,0,0.3,0,0.5c0,0.4-0.2,0.6-0.6,0.6c-0.8,0-1.6,0-2.4,0c-0.1,0-0.2,0-0.3,0c0,0.4,0,0.8,0,1.2
	c0,0.5-0.2,0.7-0.7,0.7c-5.5,0-11.1,0-16.6,0c-0.5,0-0.7-0.2-0.7-0.7c0-10.8,0-21.5,0-32.3c0-0.5,0.2-0.7,0.7-0.7c0.8,0,1.6,0,2.3,0
	c0.1,0,0.2,0,0.3,0c0-0.4,0-0.7,0-1.1c0-0.1,0-0.2,0-0.3c0-0.3,0.2-0.5,0.5-0.5c0.8,0,1.7,0,2.5,0c0.1,0,0.2,0,0.3,0
	c0-0.4,0-0.8,0-1.2c0-0.6,0.1-0.7,0.7-0.7c0.8,0,1.5,0,2.3,0c0.1,0,0.2,0,0.3,0c0-0.4,0-0.8,0-1.2c0-0.6,0.1-0.7,0.7-0.7
	c0.8,0,1.7,0,2.5,0c0,0,0,0,0.1,0c0-0.4,0-0.8,0-1.2c0-0.3,0.1-0.6,0.4-0.7C19.5,0,25.2,0,30.9,0z M30.2,32.6c0-10.5,0-21.1,0-31.6
	c-5.3,0-10.6,0-15.9,0c0,0.3,0,0.6,0,0.9c0.1,0,0.2,0,0.3,0c4.2,0,8.4,0,12.6,0c0.2,0,0.3,0,0.5,0.1C28,2.2,28,2.4,28,2.6
	c0,9.9,0,19.8,0,29.7c0,0.1,0,0.2,0,0.3C28.7,32.6,29.5,32.6,30.2,32.6z M17.1,39.4c-0.1,0-0.2,0-0.3,0c-4.2,0-8.4,0-12.6,0
	c-0.6,0-0.7-0.1-0.7-0.7c0-9.9,0-19.8,0-29.6c0-0.1,0-0.2,0-0.3c-0.8,0-1.5,0-2.3,0c0,10.5,0,21.1,0,31.6c5.3,0,10.6,0,15.9,0
	C17.1,39.9,17.1,39.7,17.1,39.4z M4.5,8.6c0,9.9,0,19.8,0,29.7c4.2,0,8.4,0,12.6,0c0-0.3,0-0.6,0-0.9c-0.1,0-0.2,0-0.3,0
	c-3.1,0-6.1,0-9.2,0c-0.6,0-0.8-0.1-0.8-0.7c0-9.2,0-18.5,0-27.7c0-0.1,0-0.2,0-0.4C6,8.6,5.2,8.6,4.5,8.6z M14.4,3.8
	c0.1,0,0.2,0,0.3,0c3.1,0,6.2,0,9.3,0c0.6,0,0.7,0.1,0.7,0.7c0,9.3,0,18.5,0,27.8c0,0.1,0,0.2,0,0.3c0.8,0,1.5,0,2.3,0
	c0-9.9,0-19.8,0-29.7c-4.2,0-8.4,0-12.6,0C14.4,3.2,14.4,3.5,14.4,3.8z M7.8,8.7c0,9.3,0,18.5,0,27.8c3.1,0,6.2,0,9.3,0
	c0-0.3,0-0.6,0-0.9c-0.1,0-0.2,0-0.3,0c-2,0-4,0-6,0c-0.5,0-0.7-0.1-0.7-0.7c0-8.6,0-17.3,0-25.9c0-0.1,0-0.2,0-0.3
	C9.3,8.7,8.5,8.7,7.8,8.7z M14.4,5.7c0.1,0,0.2,0,0.3,0c2,0,4.1,0,6.1,0c0.4,0,0.6,0.2,0.6,0.6c0,0.1,0,0.1,0,0.2
	c0,8.6,0,17.2,0,25.7c0,0.1,0,0.2,0,0.3c0.8,0,1.5,0,2.3,0c0-9.3,0-18.5,0-27.8c-3.1,0-6.2,0-9.3,0C14.4,5.1,14.4,5.4,14.4,5.7z
	 M17,32.6c0-8,0-16,0-24c-0.9,0-1.8,0-2.7,0c0,8,0,16,0,24C15.3,32.6,16.2,32.6,17,32.6z M20.3,32.6c0-8.6,0-17.2,0-25.9
	c-2,0-4,0-6,0c0,0.3,0,0.6,0,0.9c0.1,0,0.2,0,0.3,0c0.9,0,1.9,0,2.8,0c0.4,0,0.6,0.2,0.6,0.6c0,0.1,0,0.2,0,0.2c0,7.9,0,15.9,0,23.8
	c0,0.1,0,0.2,0,0.4c0.7,0,1.4,0,2.1,0C20.2,32.6,20.3,32.6,20.3,32.6z M17.1,33.6c-0.1,0-0.2,0-0.3,0c-0.9,0-1.8,0-2.7,0
	c-0.6,0-0.8-0.1-0.8-0.7c0-8,0-16,0-23.9c0-0.1,0-0.2,0-0.3c-0.8,0-1.5,0-2.3,0c0,8.6,0,17.2,0,25.9c2,0,4,0,6,0
	C17.1,34.2,17.1,34,17.1,33.6z M10,4.8c-0.8,0-1.5,0-2.3,0c0,0.3,0,0.6,0,0.9c0.8,0,1.5,0,2.3,0C10,5.4,10,5.2,10,4.8z M11.1,5.7
	c0.8,0,1.5,0,2.3,0c0-0.3,0-0.6,0-0.9c-0.7,0-1.4,0-2.1,0c0,0-0.1,0.1-0.1,0.1C11.1,5.2,11.1,5.5,11.1,5.7z M4.5,6.7
	c0,0.3,0,0.6,0,0.9c0.7,0,1.4,0,2.1,0c0.1,0,0.1-0.1,0.1-0.2c0-0.2,0-0.4,0-0.5c0-0.2-0.1-0.2-0.2-0.2c-0.5,0-1.1,0-1.6,0
	C4.8,6.7,4.6,6.7,4.5,6.7z M13.3,7.6c0-0.3,0-0.6,0-0.9c-0.5,0-1.1,0-1.6,0c-0.7,0-0.7,0-0.7,0.7c0,0,0,0.1,0,0.1
	c0,0,0.1,0.1,0.1,0.1C11.9,7.6,12.6,7.6,13.3,7.6z M7.8,7.6c0.8,0,1.5,0,2.3,0c0-0.3,0-0.6,0-0.9c-0.8,0-1.5,0-2.3,0
	C7.8,7.1,7.8,7.3,7.8,7.6z M20.3,34.5c0-0.3,0-0.6,0-0.9c-0.8,0-1.5,0-2.3,0c0,0.3,0,0.6,0,0.9C18.8,34.5,19.6,34.5,20.3,34.5z
	 M27,33.7c-0.8,0-1.5,0-2.3,0c0,0.3,0,0.6,0,0.9c0.8,0,1.5,0,2.3,0C27,34.2,27,34,27,33.7z M18.1,35.6c0,0.3,0,0.6,0,0.9
	c0.8,0,1.5,0,2.3,0c0-0.3,0-0.6,0-0.9C19.6,35.6,18.9,35.6,18.1,35.6z M11.1,3.8c0.8,0,1.5,0,2.3,0c0-0.3,0-0.6,0-0.9
	c-0.8,0-1.5,0-2.3,0C11.1,3.2,11.1,3.5,11.1,3.8z M18.1,37.5c0,0.3,0,0.6,0,0.9c0.8,0,1.5,0,2.2,0c0-0.3,0-0.6,0-0.9
	C19.6,37.5,18.8,37.5,18.1,37.5z M21.4,34.5c0.8,0,1.5,0,2.3,0c0-0.3,0-0.6,0-0.9c-0.8,0-1.5,0-2.3,0C21.4,34,21.4,34.2,21.4,34.5z
	 M23.6,35.6c-0.8,0-1.5,0-2.3,0c0,0.3,0,0.6,0,0.9c0.8,0,1.5,0,2.3,0C23.6,36.1,23.6,35.9,23.6,35.6z"/>
<g>
	<path d="M59.2,20.2c0.3-0.9,0.7-1.7,0.8-2.6c0.1-0.5-0.1-1-0.5-1.4c-0.3-0.3-0.6-0.4-0.9-0.3c-0.2,0-0.3-0.1-0.2-0.2
		c0.1-0.2,0.2-0.4,0.4-0.6c1-0.8,2.4-0.3,2.7,0.9c0.2,0.9,0,1.7-0.5,2.4c-0.3,0.5-0.6,0.9-0.9,1.4c-0.1,0.1-0.2,0.3-0.2,0.4
		c-0.3,0.5-0.5,1-0.1,1.6c0,0,0,0.1,0,0.1c0,0,0,0,0,0c-1,0-1.9,0-2.9,0c0.4-0.6,0.2-1.1,0-1.7c-0.1-0.5-0.3-0.9-0.5-1.5
		c-0.3,0.8-0.6,1.6-0.8,2.4c0,0.1,0,0.2,0,0.4c0,0.1,0.1,0.3,0.1,0.4c-1,0-1.9,0-2.9,0c0.3-0.7,0-1.3-0.1-1.9
		c-0.4-1.3-0.7-2.6-1-3.8c-0.1-0.4-0.4-0.9-0.6-1.3c1,0,2,0,3.1,0c-0.3,0.5-0.2,1,0,1.5c0.3,1.2,0.7,2.4,1,3.6c0,0,0,0,0.1,0
		c0-0.1,0.1-0.1,0.1-0.2c0.2-0.6,0.4-1.3,0.6-1.9c0-0.1,0-0.3,0-0.4c-0.1-0.4-0.3-0.7-0.4-1.1c-0.1-0.5-0.4-1-0.8-1.4
		c1.1,0,2.2,0,3.3,0c0,0,0,0.1,0,0.1c-0.2,0.4-0.2,0.8-0.1,1.2C58.3,17.5,58.7,18.8,59.2,20.2C59.1,20.2,59.2,20.2,59.2,20.2z"/>
	<path d="M35.8,14.9c0,1.8,0,3.7,0,5.5c0,0.4,0.2,0.8,0.4,1.2c0,0.1,0.1,0.2,0.1,0.3c-0.6,0-1.1,0-1.7,0c0.1-0.3,0.2-0.6,0.3-0.9
		c0.1-0.3,0.1-0.5,0.1-0.8c0-2,0-4.1,0-6.1c0-0.5-0.1-0.9-0.4-1.3c0-0.1-0.1-0.2-0.1-0.3c0.1,0,0.2,0,0.2,0c0.8,0,1.6,0,2.4,0
		c0.1,0,0.2,0.1,0.2,0.1c0.3,0.9,0.9,1.6,1.6,2.3c0.6,0.5,1.1,1.1,1.6,1.7c0.2,0.3,0.4,0.6,0.6,0.9c0-0.1,0-0.2,0-0.3
		c0-1.1,0-2.1,0-3.2c0-0.5-0.2-0.9-0.4-1.4c0-0.1-0.1-0.1-0.1-0.2c0.6,0,1.2,0,1.8,0c-0.1,0.1-0.1,0.2-0.2,0.3
		c-0.3,0.5-0.4,1.1-0.4,1.7c0,2.4,0,4.7,0,7.1c0,0.1,0,0.2,0,0.3c-0.4,0-0.7,0-1,0c-0.1,0-0.1-0.1-0.2-0.2c-0.3-0.6-0.5-1.1-0.9-1.7
		c-0.4-0.8-1.1-1.3-1.7-2c-0.6-0.6-1.2-1.3-1.8-1.9C36.3,15.8,36.1,15.3,35.8,14.9z"/>
	<path d="M50.3,18.3c-1.5,0-2.9,0-4.4,0c0,0.8-0.1,1.6,0.3,2.3c0.3,0.7,1.3,0.9,2,0.5c0.7-0.4,0.9-1.2,0.5-1.8
		c0-0.1-0.1-0.1-0.1-0.2c0.4-0.2,0.7-0.2,1,0.1c0.4,0.3,0.4,0.6,0.4,1.1c-0.1,0.5-0.3,0.8-0.7,1.1c-0.6,0.4-1.2,0.6-1.9,0.6
		c-0.6,0-1.2,0-1.8-0.2c-1.4-0.4-2.3-1.6-2.4-3.1c-0.1-0.7,0-1.4,0.3-2.1c0.6-1.3,1.6-1.9,3-2c0.8-0.1,1.6,0.1,2.3,0.4
		c0.9,0.5,1.4,1.3,1.5,2.3C50.3,17.7,50.3,18,50.3,18.3z M47.7,17.7c0-0.5,0-1,0-1.5c0-0.2,0-0.3-0.1-0.5c-0.1-0.4-0.4-0.5-0.8-0.5
		c-0.3,0-0.6,0.3-0.7,0.7C46,16.3,46,16.7,46,17.1c0,0.2,0,0.4,0,0.6C46.6,17.7,47.1,17.7,47.7,17.7z"/>
</g>
<g>
	<path d="M70.4,12.2c2.7,0,4.8,2.1,4.8,4.8c0.1,2.9-2.1,5-4.8,5c-2.7,0-4.8-2.1-4.8-4.8C65.5,14.3,67.6,12.2,70.4,12.2z M72.9,17
		c0-0.2,0-0.5-0.1-0.8c-0.2-1-0.8-1.6-1.8-1.8c-1-0.2-1.9,0-2.5,0.9c-0.5,0.8-0.6,1.7-0.4,2.6c0.4,1.8,2.6,2.6,4,1.3
		C72.6,18.7,72.8,17.9,72.9,17z"/>
	<path d="M87.9,21.9c-0.8,0-1.5,0-2.3,0c0-0.4,0-0.8,0-1.2c-0.1,0-0.1,0.1-0.1,0.1c-0.8,1.6-3.2,1.6-4.4,0.5c-0.7-0.7-1-1.5-1.1-2.4
		c-0.1-1.1,0-2.3,0.7-3.2c1.1-1.6,3.3-1.6,4.2-0.8c0.3,0.2,0.5,0.5,0.7,0.8c0-0.6,0-1.2,0-1.8c0-0.6,0-1.2,0-1.8c0.8,0,1.5,0,2.3,0
		C87.9,15.2,87.9,18.5,87.9,21.9z M82.3,18.1C82.3,18.1,82.4,18.1,82.3,18.1c0,0.1,0,0.2,0,0.3c0.1,0.7,0.4,1.2,1,1.4
		c0.7,0.2,1.4,0.1,1.8-0.5c0.4-0.5,0.5-1.2,0.4-1.8c-0.1-0.8-0.8-1.3-1.5-1.3c-0.8,0-1.4,0.4-1.6,1.2C82.4,17.7,82.4,17.9,82.3,18.1
		z"/>
	<path d="M76.5,11.9c0.8,0,1.5,0,2.3,0c0,3.3,0,6.6,0,10c-0.8,0-1.5,0-2.3,0C76.5,18.6,76.5,15.2,76.5,11.9z"/>
</g>
<g>
	<path d="M40.2,28c1.1,0,2.3,0,3.4,0c0,0,0,0.1,0,0.1c-0.3,0.4-0.3,0.9-0.3,1.4c0,0.9,0,1.9,0,2.8c0,0.3,0.2,0.6,0.3,0.9
		c0,0.1,0.1,0.2,0.2,0.3c-0.1,0-0.1,0-0.2,0c-1.5,0-2.9,0-4.4,0c-2.4,0-4.2-1.6-4.5-4c-0.1-1-0.1-1.9,0.3-2.8
		c0.7-1.6,1.9-2.4,3.5-2.6c0.7-0.1,1.5,0,2.2,0.1c0.5,0,1,0.1,1.6,0.2c0.3,0,0.7-0.1,1-0.2c0.2-0.1,0.3,0,0.3,0.2c0,0.1,0,0.2,0,0.3
		c-0.4,1.4-1.5,2-2.8,1.6c-0.1,0-0.2-0.1-0.3-0.2c-0.1-0.1-0.2-0.2-0.2-0.4c0.1-0.6-0.5-1.2-1.2-1.1c-0.5,0.1-0.8,0.3-1.1,0.7
		c-0.3,0.5-0.5,1.1-0.5,1.8c-0.1,1.2-0.1,2.5,0.2,3.7c0.4,1.3,1.2,1.9,2.5,2c0.1,0,0.2,0,0.3,0c0.1,0,0.2-0.1,0.2-0.3
		c0-1.3,0-2.5,0-3.8c0-0.1-0.1-0.3-0.1-0.4C40.5,28.3,40.4,28.2,40.2,28z"/>
	<path d="M81.4,26.3c0.8,0,1.6,0,2.4,0c0,0.1,0,0.1-0.1,0.2c-1.4,3.4-2.9,6.8-4.3,10.2c-0.1,0.2-0.2,0.2-0.4,0.2c-0.7,0-1.4,0-2.2,0
		c0-0.1,0.1-0.2,0.1-0.3c0.5-1.1,1-2.1,1.5-3.2c0.1-0.2,0.1-0.3,0-0.5c-0.9-2.1-1.9-4.3-2.8-6.4c0-0.1-0.1-0.1-0.1-0.3
		c0.3,0,0.5,0,0.8,0c0.3,0,0.6,0,0.9,0c0.3,0,0.6-0.1,0.8,0c0.2,0.1,0.2,0.5,0.3,0.7c0.5,1.2,0.9,2.4,1.4,3.6
		C80.3,29.2,80.8,27.8,81.4,26.3z"/>
	<path d="M48.9,33c-0.1,0.1-0.2,0.1-0.3,0.2c-0.9,0.6-1.8,0.7-2.8,0.3c-1.3-0.6-1.5-2.3-0.5-3.3c0.4-0.3,0.8-0.6,1.2-0.7
		c0.6-0.2,1.2-0.4,1.8-0.7c0.6-0.2,0.7-1,0.3-1.4c-0.2-0.2-0.7-0.3-0.9-0.1c-0.2,0.1-0.2,0.3-0.1,0.5c0.2,0.4,0.2,0.5-0.3,0.7
		c-1,0.4-1.6,0.1-2.1-0.8c-0.2-0.4-0.3-0.8-0.3-1.2c0,0,0,0,0.1,0c0.9,0.4,1.7,0.2,2.6,0.1c0.8-0.1,1.5-0.1,2.3,0.1
		c0.7,0.2,1.1,0.6,1.2,1.3c0.1,0.4,0.1,0.9,0.1,1.3c0,0.9,0,1.8,0,2.7c0,0.5,0.1,0.9,0.2,1.3c0,0.1,0,0.2,0.1,0.3c-0.3,0-0.6,0-1,0
		c-0.4,0-0.9,0-1.3,0c-0.2,0-0.3-0.1-0.4-0.3C49,33.2,49,33.1,48.9,33z M48.9,29.4c-0.1,0-0.2,0.1-0.3,0.1c-0.7,0.4-1.1,1-1.3,1.8
		c-0.1,0.4,0,0.7,0.2,1.1c0.2,0.3,0.5,0.4,0.8,0.3c0.3-0.1,0.7-0.5,0.7-0.8c0-0.5,0-1.1,0-1.6C48.9,30,48.9,29.7,48.9,29.4z"/>
	<path d="M68.4,30c-1.5,0-2.9,0-4.4,0c0,0.8-0.1,1.7,0.3,2.4c0.3,0.6,1.3,0.8,2,0.5c0.6-0.3,0.9-1.1,0.5-1.8c0-0.1-0.1-0.1-0.1-0.2
		c0.5-0.4,1.3,0,1.4,0.6c0.1,0.6-0.1,1.1-0.5,1.5c-0.5,0.5-1.2,0.7-1.9,0.8c-0.8,0.1-1.5,0-2.2-0.3c-1.3-0.5-2.1-1.5-2.2-2.9
		c-0.1-0.5,0-1.1,0.1-1.6c0.2-1.1,0.9-1.9,2-2.3c0.9-0.3,1.8-0.4,2.8-0.1c1.6,0.6,2.1,1.5,2.2,2.9C68.4,29.6,68.4,29.8,68.4,30z
		 M65.8,29.3c0-0.3,0-0.5,0-0.8c0-0.3,0-0.7-0.1-1c-0.1-0.3-0.3-0.5-0.6-0.6c-0.4,0-0.8,0.2-0.9,0.6c-0.1,0.5-0.1,1.1-0.2,1.6
		c0,0.1,0,0.1,0,0.2C64.7,29.3,65.2,29.3,65.8,29.3z"/>
	<path d="M57.6,23.6c0.8,0,1.5,0,2.3,0c0,3.3,0,6.6,0,10c-0.8,0-1.5,0-2.3,0C57.6,30.2,57.6,26.9,57.6,23.6z"/>
	<path d="M72.1,33.5c-1,0-2,0-3,0c0.4-0.4,0.4-0.8,0.4-1.3c0-1.5,0-2.9,0-4.4c0-0.4-0.1-0.8-0.3-1.2c0-0.1-0.1-0.2-0.1-0.3
		c0.9,0,1.7,0,2.6,0c0,0.2,0,0.4,0,0.6c0.1-0.1,0.2-0.2,0.3-0.2c0.5-0.4,1.2-0.6,1.8-0.4c0.8,0.3,1.2,0.9,1.3,1.7
		c0.1,0.4,0.1,0.8-0.1,1.1c0,0.1-0.2,0.2-0.2,0.2c-0.7,0-1.3,0-2,0c0,0-0.1,0,0,0c0.1-0.4,0.1-0.8,0.2-1.1c0-0.2,0-0.3-0.1-0.5
		c-0.2-0.4-0.7-0.5-1-0.1c-0.2,0.2-0.2,0.5-0.2,0.8c0,0.5,0,1,0,1.4c0,0.7,0,1.3,0,2C71.7,32.5,71.7,33,72.1,33.5z"/>
	<path d="M53.1,23.6c0.8,0,1.5,0,2.3,0c0,3.3,0,6.6,0,10c-0.8,0-1.5,0-2.3,0C53.1,30.2,53.1,26.9,53.1,23.6z"/>
</g>
<g>
	<path d="M40.8,10.6c-0.5,0-0.9,0-1.3,0c0-1.9,0-3.9,0-5.8c0.4,0,0.9,0,1.3,0c0,0.7,0,1.4,0,2.2c0.4-0.6,0.9-0.8,1.5-0.8
		c0.9,0.1,1.5,0.6,1.5,1.5c0,1,0,1.9,0,2.9c-0.4,0-0.9,0-1.3,0c0-0.3,0-0.6,0-0.9c0-0.5,0-1,0-1.5c0-0.5-0.3-0.9-0.8-0.9
		c-0.5,0-0.9,0.3-0.9,0.9c0,0.7,0,1.5,0,2.2C40.8,10.4,40.8,10.5,40.8,10.6z"/>
	<path d="M48.8,9.1c-0.1,0.5-0.3,0.8-0.7,1.1c-1,0.8-3.1,0.7-3.6-1.1c-0.2-0.9-0.1-1.7,0.6-2.4c0.7-0.7,1.6-0.7,2.5-0.4
		c0.8,0.3,1.2,1,1.3,1.9c0,0.1,0,0.1,0,0.2c0,0.1,0,0.2,0,0.3c-1,0-2,0-3,0c-0.1,0.4,0.1,0.8,0.5,0.9c0.4,0.2,0.8,0,1.1-0.5
		C47.9,9.1,48.3,9.1,48.8,9.1z M45.8,8.1c0.6,0,1.1,0,1.7,0c0-0.5-0.3-0.8-0.8-0.8C46.2,7.2,45.9,7.5,45.8,8.1z"/>
	<path d="M38.8,5.1c0,0.4,0,0.7,0,1.1c-0.5,0-1,0-1.5,0c0,1.5,0,3,0,4.5c-0.5,0-0.9,0-1.4,0c0-1.5,0-3,0-4.5c-0.5,0-1,0-1.5,0
		c0-0.4,0-0.7,0-1.1C35.9,5.1,37.4,5.1,38.8,5.1z"/>
</g>
</svg>
