<svg xmlns="http://www.w3.org/2000/svg" viewBox="0 0 203.01 377.03"><defs><style>.cls-1,.cls-2{fill:none;}.cls-1{stroke:#fff;stroke-linecap:round;stroke-linejoin:round;stroke-width:1.82px;}.cls-2{stroke:#000;stroke-miterlimit:10;stroke-width:1.84px;}</style></defs><title>Capa 2movilapp</title><g id="Capa_2" data-name="Capa 2"><g id="Capa_1-2" data-name="Capa 1"><g id="Capa_2-2" data-name="Capa 2"><g id="INTRO_NEGRA" data-name="INTRO NEGRA"><rect x="58.59" y="135.18" width="82.17" height="82.17" rx="15.62" ry="15.62"/><g id="icono_inicio" data-name="icono inicio"><rect class="cls-1" x="80.12" y="160.61" width="23.07" height="44.57" rx="3.19" ry="3.19"/><rect class="cls-1" x="87.83" y="155.11" width="23.07" height="44.57" rx="3.19" ry="3.19"/><rect class="cls-1" x="95.28" y="148.92" width="23.07" height="44.57" rx="3.19" ry="3.19"/></g><rect class="cls-2" x="0.92" y="0.92" width="201.17" height="375.19" rx="19.53" ry="19.53"/><rect class="cls-2" x="13.92" y="43.37" width="175.17" height="292.89"/><path class="cls-2" d="M64.81,21h77.66a3.12,3.12,0,0,1,3.12,3.12h0a3.12,3.12,0,0,1-3.12,3.11H64.81a3.12,3.12,0,0,1-3.12-3.11h0A3.12,3.12,0,0,1,64.81,21Z"/><circle class="cls-2" cx="103.43" cy="356.83" r="11.25"/></g></g></g></g></svg>