<svg xmlns="http://www.w3.org/2000/svg" viewBox="0 0 506.08 924.68"><defs><style>.cls-1{fill:#fff;}</style></defs><title>Recurso 2PiniPic</title><g id="Capa_2" data-name="Capa 2"><g id="Capa_1-2" data-name="Capa 1"><path d="M236.42,403.72h6.42c-6,14.56-12,28-21.61,39.92.21,3.21.45,6.69.7,10.36a38.19,38.19,0,0,0,18.4.44c9.47-1.92,19-3.89,28.15-6.95,12.22-4.11,24.2-9,36.06-14.09a90,90,0,0,0,28.74-19.33c8.6-8.65,12.48-19.13,15.11-31.5-3.93.62-7,1.23-10.08,1.55a18.11,18.11,0,0,1-4.8-.35,2.85,2.85,0,0,1-1.38-4.63,20.84,20.84,0,0,1,5.28-4.08c4.62-2.15,9.43-3.91,14.61-6,.26-.84.7-2,1-3.26,1.89-8.5,4-17,5.55-25.52,1.4-7.61,2.23-15.32,3.36-23q5.63-37.85,11.3-75.68c2.95-19.58,4.2-39.21,1.2-58.87-2.63-17.26-6.31-34.28-13-50.52a31.67,31.67,0,0,1-2.08-5.42c-2.78-13.69-11.21-24.11-21.11-32.83-7.18-6.33-14.29-12.91-22.05-18.61-2.34-1.71-4.81-3.26-7.15-5-6-4.4-11.84-3.64-18.33.31,10.19.64,13.22,2.12,20.62,9,5.43,5,11.14,9.72,16.61,14.69,2,1.86,5.38,3.74,3.43,7.07-1.73,3-5.4,2.06-8,1.41a263.35,263.35,0,0,1-25.93-7.67c-9.64-3.56-18.81-8.31-26.43-15.44-3.93-3.67-7.57-7.64-11.81-11.95-.6.2-2.06.24-2.89,1-5.48,5-10.93,2.42-16.15-.16-2.27-1.13-3.88-3.28-2.63-6.44a6.49,6.49,0,0,0,.19-4.58c-2.11-4.58-1.23-8.81.74-12.46-1.12-3.63-2.23-6.64-2.91-9.75a4.55,4.55,0,0,1,1.18-3.31,2.84,2.84,0,0,1,2.66-.09,66.06,66.06,0,0,1,6.4,4.22,39.57,39.57,0,0,1,3.33,3.15c4.65-9.15,7.08-18.84,14.14-27.7.4,7.63-4.88,11.6-6,17.12-1.12,5.3-3.29,10.38-5.11,15.89L263.21,59.3l-1.67,3c.69.32,1.43.92,1.7.76a57.83,57.83,0,0,1,18.51-6.74c1.74,2.12.56,3.66-.47,4.52-3.67,3.05-7.58,5.82-11.68,8.91,0,4.37,3.79,6,7.33,8.74,1.68-1.92,3.4-3.82,5.05-5.79,4.13-4.94,9.6-7.18,15.77-8.61,4.06-1,7.8-1,11.12,1.28,6.35,4.38,12.51,9,18.65,13.71,2,1.55,3.54,3.83,5.65,5.22,14.3,9.4,23.84,22.37,29.45,38.4,2,5.78,4.12,11.54,6.23,17.29a187.43,187.43,0,0,1,10.55,82.89c-1.65,17.66-4.93,35.17-7.47,52.74-2.22,15.33-4.3,30.69-6.69,46-1.39,8.91-3.31,17.74-4.94,26.61-1.28,7-2.48,13.93-3.73,21,3.34,2.48,6.72,2.91,10.34,2.79,8.53-.28,16.58,1.76,24.48,4.9,4.7,1.87,9.7,3,14.51,4.41.3,3.5-2.4,2.82-3.94,2.65-9.94-1.11-19.85-2.51-29.78-3.71a96.1,96.1,0,0,0-10.58-.74c-2.84,0-5.69.41-8.56.64-.68,1.57-1.71,2.77-1.61,3.87.64,6.8-2.81,12.46-5.07,18.37-3.32,8.7-9.85,15-17.09,20.61a112.73,112.73,0,0,1-23.35,13.65,355.1,355.1,0,0,1-49,17.94c-9.65,2.67-19.47,4.68-29.62,3.72-1.9-.18-3.82,0-6.16,0-.84,1.74-1.64,3.43-2.48,5.11-7.2,14.34-16.67,19.46-32.88,18.11-6.44-.53-12.93-.55-19.14-2.56a70.55,70.55,0,0,1-9.87-3.9c-3.62-1.8-4.56-4.09-3.35-8a25.25,25.25,0,0,1,3.26-6.95c2.19-3.16,4.83-6,7.71-9.52a29.69,29.69,0,0,0-4.35-2.87c-2.95-1.29-6.1-2.14-9-3.43-4.11-1.81-8.13-3.83-12.16-5.8-2-1-3.9-2.74-6-3-6.54-.78-9.06-5.71-11.52-10.57a23.65,23.65,0,0,1-2.25-8.36c-1.5-17-4.58-33.9-4.89-51.08-.16-8.32-1.82-16.64-3.11-24.92-1.89-12.15-3.35-24.34-2.43-36.62.33-4.44,1.8-8.81,3-13.15a29.65,29.65,0,0,1,2.7-6.21c9-16.43,15.48-34,23.39-51,5-10.76,9.76-21.73,17-31.36,9-11.93,19-22.8,31.16-31.56a67.21,67.21,0,0,1,20-9.6c14.8-4.48,29.73-8.54,44.62-12.71,2.11-.59,4.31-.84,6.32-1.21,1.37,2.52.23,3.5-1.39,4-15.15,4.42-30.31,8.83-45.5,13.13a75.31,75.31,0,0,0-28.81,15.27c-10.92,9.3-20.46,19.75-27.82,32a203.73,203.73,0,0,0-10.54,20.6c-5.34,11.73-10.24,23.67-15.5,35.44-2.24,5-4.74,9.9-7.43,14.67-7.15,12.68-8.32,26.32-6.67,40.39,1,8.33,2.5,16.59,3.4,24.92,1.35,12.51,2.25,25.08,3.57,37.6q1.71,16.37,4,32.68A22.24,22.24,0,0,0,127,426c1.06,1.79,3.11,3.16,5,4.28a81.21,81.21,0,0,0,8.57,4.24q12.81,5.67,25.7,11.2c2.2.95,4.36.53,6.52-.52,9.51-4.59,18.84-3.09,28,1.05,5.23,2.37,10.43,4.84,15.94,7.4a20.09,20.09,0,0,0-1.27-13.71,14.08,14.08,0,0,1-1.15-3.63c-.39-2.36,1.8-4.11,4.38-3.45a25.15,25.15,0,0,1,3.93,1.78,19.81,19.81,0,0,0,3-3.38c3.72-6.78,7.18-13.71,11-20.44,1.48-2.61,1-4.9.12-7.37ZM373,375.78l-3-.58-.09.92,3.41-.54c1.3,1.93,2.87,2.93,5,1.57C376.61,376.69,374.85,376.2,373,375.78ZM192.29,457c3.75.73,7.52,1.37,11.24,2.21,2.51.57,4.92,1.53,7.43,2.07.59.12,1.39-.79,2.1-1.22-.57-.7-1-1.88-1.71-2-6.3-1.23-12.59-3.07-19.07-1a37.88,37.88,0,0,0-20.55-5.58c-1.2,0-3.34.24-2.38,3.12,1.5-.09,3-.29,4.54-.24C180.12,454.46,186.43,454.19,192.29,457Zm.88,20.75c2.73-4.94,2.79-5.09,6.35-4.37,1.85.38,3.52,1.4,5.5.3,3.11-1.73,5.75-3.79,7.1-7.59-2.74-1-5.17-1.77-7.56-2.65-8.52-3.11-17.44-4.31-26.38-5.2-5.87-.58-11.57.07-16.54,3.73-2.72,2-4.82,4.28-3.95,8.44C168.15,477.68,180.48,477.19,193.17,477.7ZM283,83.46c13.23,8.58,27.79,12.73,43.94,17.16-1.49-2.37-1.93-3.58-2.78-4.33-7-6.21-13.68-12.78-21.15-18.33-6.47-4.81-8.4-4.38-14.95-.38C285.8,79,282.52,80.07,283,83.46ZM252.11,54.77c-4.71-1-6.63-4.91-10.77-5.41-.77,8.07.82,9.62,7.21,7.43A30.91,30.91,0,0,0,252.11,54.77Zm4.6,7.23c-5,.27-8.66.44-12.33.73-.44,0-.83.73-1.51,1.38,1.11,2.81,3.84,2.72,6.08,3.1C252.06,67.73,254.24,66.14,256.71,62ZM198.36,451.16c-8.21-4.64-10.69-5.05-18.05-3.11C186.57,450.84,192.57,450.33,198.36,451.16Zm139-70.66c2.88-.4,5.09-.43,7.13-1.06s5.66-.93,4.85-3.55c-1.09-3.53-3.57-.11-5.43.22C341.49,376.54,339,377,337.34,380.5ZM268.06,65.86c2.48.11,4.38,0,5.25-3.37C270.93,62.62,268.91,62.5,268.06,65.86ZM360.27,376c-1.83-1.48-3.82-3.16-6.08,0ZM241.75,37.26l-1.38,1.46c1.16,1.14,2.27,2.34,3.52,3.38.28.22,1-.15,1.58-.24-.14-.53-.12-1.21-.45-1.56C244,39.22,242.85,38.27,241.75,37.26Z"/><path d="M0,882.6c.41-1.11.52-2.52,1.29-3.27a45.71,45.71,0,0,1,6.62-5.58Q26,861.66,44.81,850.64c13.61-8,27.91-14.73,41.19-23.42,9.7-6.34,19.87-12,28.92-19.3,4.51-3.64,8.78-7.56,13.2-11.31,7.64-6.48,15-13.21,21.36-21,11.42-14.05,22-28.63,30.91-44.45,7.86-14,11.55-29.42,15-44.81,5.85-25.77,5.16-51.88,2.87-78-.63-7.14-3.81-12-10-15.37a141.13,141.13,0,0,1-12.08-8,29.44,29.44,0,0,1-12.31-18c-3.28-14.37-12-23.82-25.11-29.77-7.92-3.58-15.51-8-23.59-11.09-10.59-4.1-17.57-11.62-22.9-21.17-1.41-2.51-2.87-5-4.42-7.69l-7,1.11c-1.61-1.43-3.32-2.87-4.94-4.41-2.79-2.67-5.35-5.07-9.81-5.4A14.55,14.55,0,0,1,54.5,480.8c-1.92-3.34-4.19-6.49-6.42-9.64-3.16-4.45-5.61-9.41-9.88-13.07a10.37,10.37,0,0,1-3.76-8.57c.2-5.49,5.08-9,10-6.67,5.78,2.77,11.79,5.48,14.8,12.13,4.92-1.08,8.15.85,10.82,4.61,3,4.2,6.56,8,9.7,12.05a26.15,26.15,0,0,1,3.31,5.88c1.66,4,.94,6.15-2.69,9.13-.92.75-1.88,1.46-3.06,2.38a31,31,0,0,0,2.72,3.31,10.8,10.8,0,0,0,2.48,1.31c.92-4.57.92-4.57,3.58-8a27.2,27.2,0,0,1,2.18,2.82c4.19,7.21,8.21,14.53,12.54,21.66a29.86,29.86,0,0,0,14.54,12.29c6.55,2.71,12.91,5.89,19.44,8.68a105.18,105.18,0,0,1,22.49,13.11,18.48,18.48,0,0,1,6.44,8.28c1.47,3.93,3.7,7.66,4.63,11.69,2.44,10.61,9.43,17.31,18.1,22.89,3.76,2.43,7.23,5.32,10.89,7.9a11,11,0,0,1,4.6,8.16c.67,5.76,1.52,11.54,1.61,17.32.21,12.23,1.43,24.45.5,36.71-1.8,23.68-6.69,46.63-16.38,68.37-5.81,13-14,24.68-22.51,36.08-5.95,8-12.09,16-19.14,23.07-16,15.94-32.65,31.23-52.75,42.1-3.12,1.69-6,3.76-9.09,5.55-5.56,3.24-11.11,6.5-16.76,9.59C44.54,854.49,21.71,867.15,0,882.6ZM55.47,472.79c4.23,3.25,7.34,5.93,10.74,8.16A30.32,30.32,0,0,0,74,484.51a5.18,5.18,0,0,0,4.34-.9c.9-.88,1-2.83,1-4.33a4.55,4.55,0,0,0-1.08-2.59q-6.08-8-12.3-15.85c-.79-1-1.93-1.69-3.22-.55C65.62,469,65.62,469,55.47,472.79ZM53,468.53c1.11-3.17,1.62-5,2.42-6.78,1.63-3.49.35-6.08-2-8.7-2.94-3.25-6.89-4.68-10.64-6.48a2.86,2.86,0,0,0-2.64.28A6.49,6.49,0,0,0,39,450.3,4.2,4.2,0,0,0,40,453C44,457.85,48.08,462.67,53,468.53Zm7-2.42L59.09,465c-.2.2-.58.44-.56.6a7.39,7.39,0,0,0,.5,1.33Z"/><path d="M477.53,374.11c4.54-4.19,9.2-8.18,13.51-12.51,10.06-10.13,12.89-22,8-35.57-4.24-11.84-7.83-23.95-12.77-35.49-4.68-10.94-6.44-22.29-7.48-33.88a493.46,493.46,0,0,1-1.62-63.88c.13-3.22-.17-6.45-.19-9.68A33.29,33.29,0,0,0,471.07,164c-5-7.15-9.77-14.41-14.85-21.46a97.19,97.19,0,0,1-14-27.51c-4.76-15.05-9.88-30-14-45.27-3.7-13.66-9-26.91-13.93-40.21-1.55-4.16-4.3-7.88-6.81-12.35-5.68-1.32-11.57-3-17.57-4-14-2.35-28-4.71-42.09-6.44A297.57,297.57,0,0,0,315,4.3c-14.58-.18-26.84,6-37.18,16.06-1.1,1.08-2,2.36-4.07,4.82-.13-2.65-.62-4-.15-4.67,1.61-2.35,3.22-4.94,5.45-6.6C291,5.05,303.84-.88,319.31.11,338.66,1.34,357.94,3,377.07,6.24c4.45.75,8.92,1.43,13.37,2.23a60.6,60.6,0,0,1,7.55,1.7c11.09,3.5,18.77,10.19,22.64,21.72,5.85,17.43,12.24,34.66,16.78,52.53,2.46,9.66,6,19.07,9.4,28.45A122.88,122.88,0,0,0,464.47,145c1.36,1.8,2.67,3.65,4.13,5.37,10.17,11.94,13.74,26,13.56,41.34-.15,12.56-.74,25.15-.14,37.68.64,13.51.83,27.12,3.4,40.46A113.28,113.28,0,0,0,490,285.64c4.37,12.49,9.05,24.86,13.45,37.33,5.62,15.9,2.17,29.81-9.6,41.72-3.63,3.68-7.3,7.33-11.13,10.78-4.33,3.9-8.63,4.23-13.11.7a153.62,153.62,0,0,1-11.39-10.43,2.53,2.53,0,0,1,.15-2.46,2.72,2.72,0,0,1,2.54-.44,70.13,70.13,0,0,1,7.44,6.1C470.69,371.2,473,373.46,477.53,374.11Z"/><path d="M450.87,924.68c-1-.61-2.07-.9-2.47-1.59-9-15.66-17.87-31.4-26.87-47.07-8-14-16.51-27.7-24.16-41.88C388.65,818,383.78,800.78,385.92,782c1.2-10.58,1.62-21.25,2.42-31.87a12.54,12.54,0,0,1,.6-3.8c.25-.6,1.39-1,2.19-1.12.39-.07,1.07.62,1.33,1.12a3.64,3.64,0,0,1,.28,1.86c-.83,11.26-1.41,22.56-2.62,33.78-1.53,14.28,1.94,27.53,7.12,40.57,4.79,12.07,12.22,22.68,18.6,33.87,10.85,19,21.84,38,32.68,57.06C450.4,916.8,452.43,920.24,450.87,924.68Z"/><path d="M457.47,411.07c3.37.1,3.8-3,5.25-4.91s2.84-4.23,4.48-6.16c.95-1.12,3.59-.42,4.13.94a28.36,28.36,0,0,1,1.78,14.27,70.91,70.91,0,0,1-6.25,21.27c-2.17,4.61-5.06,9-9.46,12.06-.79.55-1.46,1.3-2.29,1.79-12.51,7.31-18.39,19.32-23,32.26-2.07,5.76-4.29,11.48-6.79,17.06a55,55,0,0,1-5.78,10c-2.77,3.78-7.46,4.63-11.15,2a23.08,23.08,0,0,1-5.7-6.42c-.94-1.5.16-3,2.28-3.54,1.9,2,3.76,4.11,5.87,6A3.46,3.46,0,0,0,416,507a100.73,100.73,0,0,0,6.42-11.82c4-9.13,7.75-18.41,11.63-27.62,3.2-7.61,7.87-13.84,15.21-18.17,13.8-8.16,18.7-21.49,20.07-36.59.16-1.76-.34-3.57-.71-6.94-2.84,3.61-4.72,6-6.62,8.41-1.2,1.52-2.17,3.37-3.69,4.42s-3.61,1.86-5.22,1.54c-2.29-.46-2.2-2.87-1.75-4.8a39.48,39.48,0,0,1,2.16-7.39c2-4.3,1.15-8-1.32-11.82-3.45-5.39-6.47-11.05-10.17-17.44,2.08-.09,3.53-.6,4.22-.09a13.62,13.62,0,0,1,2.93,3.74c2.43,3.8,4.61,7.76,7.2,11.44,2.78,4,4.06,8,2.23,12.69a25.78,25.78,0,0,0-.87,4.68c-.5.59-1,1.18-1.52,1.76l.75.58a10.81,10.81,0,0,0,.88-1.64C457.87,411.72,457.59,411.36,457.47,411.07Z"/><path d="M419.42,416.38c-3.89,2.12-7-1-10.88-.89-7.3,10.93-18,12-29.84,9.46-7.85-1.68-15.66-3.53-22.31-5-4.4.82-6.47,4.9-11.17,3.16,6.2-6.85,13.33-11.14,20.59-15.1,2.38-1.3,5.6-1.5,8.42-1.47,5.46,0,10.93.48,16.38,1a20.83,20.83,0,0,0,13.79-3.14c5.14-3.27,10.68-5.92,16.11-8.73a32.69,32.69,0,0,1,4.94-1.56c-2.43,3.83-2.45,3.78-5,5.22-2.13,1.18-4.16,2.55-7.1,4.36,5.61,3.08,11.25,2.39,17.07,4.78-4,2.75-7.07.59-10,.83s-5.65.05-8.75.05C412,414.39,418,412.31,419.42,416.38ZM407,407.52c-8,6.31-16.72,3.85-25.27,3.42a75.71,75.71,0,0,0-11.57.14c-3.34.34-6.55,1.5-8.58,5.49,7.82,1.92,14.9,4.45,22.17,5.24C395.19,423.06,402.94,421,407,407.52Z"/><path d="M333,586.86c-1.26-5.05-5.25-6.19-8.73-7.11a26.38,26.38,0,0,0-10.51-.47c-6.23,1-12.21.76-18.08-1.49-7.05-2.7-13.31-.61-19.08,3.36a46.27,46.27,0,0,1-11.49,6.18c-1.81-1.64-.84-2.77.16-3.43,4.3-2.83,8.49-6,13.12-8.13,5.84-2.74,12.06-4.59,18.64-2.13a31.15,31.15,0,0,0,18,1.3c6.84-1.44,13.42.33,19.13,4.69,2.4,1.84,3.8,4.11,3.34,7.21l4.79,1c.76,2.1-.33,3.22-2,3.56a33.4,33.4,0,0,1-5.76.43,49.37,49.37,0,0,0-16.07,2.62c-8.36,3-17,3.34-25.1-1.36a18.73,18.73,0,0,0-14.8-2.08c-5.55,1.4-11.45,1.52-17.21,2-1.76.14-4,.15-4.46-2.44.17-.23.32-.6.48-.61a142.73,142.73,0,0,0,25.8-3.18,13.29,13.29,0,0,1,5.67.29,24.91,24.91,0,0,1,7.24,2.59c6.14,3.79,12.26,2.85,18.44.49,3-1.15,5.76-3.18,8.83-3.75S329.52,586.61,333,586.86Z"/><path d="M401.57,631.94h10c2.14-3.65.7-7.15.59-10.59-.26-8-.51-16.09-.57-24.14,0-2.18,1.41-3.36,4.19-3.12.21,1.7.52,3.22.56,4.76.21,8.37.34,16.74.51,25.11,0,1.62.26,3.23.19,4.84-.23,5.42-2.35,7.69-7.64,8a79.13,79.13,0,0,1-8.71-.17,22.22,22.22,0,0,1-3.8-.92c-1.66-4.51-1.44-9-1.2-13.49.84-15.46,1.9-30.91,2.88-46.36.22-3.54.25-7.09.69-10.6.67-5.39,2.17-6.82,7.22-7.32,3.21-.32,6.42-.65,9.63-.67.94,0,1.89,1,4.49,2.53l-16.14,3c-2.47,20.59-3.44,41.12-4.24,61.65C400.12,626.82,401.07,629.3,401.57,631.94Z"/><path d="M305.68,524.29c.25-4.22.85-6.19.37-7.84-1-3.35-2.69-6.48-3.77-9.81-.32-1,.48-2.32.77-3.49,1.08.41,2.82.54,3.11,1.27a67.27,67.27,0,0,1,3.95,11.85,15.11,15.11,0,0,1-.89,7.45c-1,3-4.24,4.12-7.16,2.61a49.4,49.4,0,0,1-5.59-4,22.45,22.45,0,0,1-2.94,2.4c-7.15,4.1-13.39,2.6-17.89-4.7a7.62,7.62,0,0,0-5.08-3.92c-4.06-.84-8.16-1.48-12.55-2.25-2.16,4.41-4.71,8.09-9.63,8.93a18.77,18.77,0,0,1-4.76.47c-2.57-.22-5.16-.77-6.43-3.48-.78-1.68.68-4.1,3.73-6.12,3.26-2.16,6.66-3.72,10.77-3.68,6.11.07,12.13.28,18.15,1.69,4.61,1.07,8.63,2.07,10.44,7.2,1.08,3.06,4.36,3.77,7.18,4.16,1.19.16,2.84-1.1,3.87-2.13a2.41,2.41,0,0,0-.53-4c-.82-.46-1.83-.56-2.69-1-2.43-1.16-3.48-2.94-2.57-4.25a3.81,3.81,0,0,1,5.13-1.23,44.8,44.8,0,0,1,7.63,5.76C300.37,518.07,302.1,520.33,305.68,524.29ZM241.53,519c4.08,1.44,6.81.74,9.27-1a2.9,2.9,0,0,0,1.09-2.34,2.52,2.52,0,0,0-1.93-1.51A9,9,0,0,0,241.53,519Z"/><path d="M177.65,687.23c-4.09,4.57-3.82,11.42-11,11.71-5.75-7.75-10.15-16-7.9-26.44.75-3.46,1.45-6.94,2.36-10.36,2.49-9.35,5.24-18.62,7.57-28,2.09-8.42,4.36-16.86,3.94-25.7-.08-1.77-.29-3.89,2.49-5,.37.65,1,1.3,1.11,2,.93,8.8-.7,17.34-2.85,25.8q-4.65,18.27-9.42,36.51c-2.45,9.45-1.64,18.36,4.12,26.73,3.38-.75,3.6-3.64,4.38-5.89a6.31,6.31,0,0,1,4.55-4.52c1.93-.51,4.52.67,4.44,2.51-.25,5.75,2.26,10.33,6.4,14.67C181.34,701.1,179.48,698.49,177.65,687.23Z"/><path d="M220.81,395.66c3.77,3.14,8.36,3.57,13,4,2.42.24,2.76,2,2.63,4l.29-.32c-3.47-.43-7-.64-10.42-1.32-9.13-1.82-18.14-5-27.33-5.53-13.06-.79-26.41-1.49-39.15,3a84.65,84.65,0,0,0-10.41,4.84c-2.27,1.16-4.37,2.63-6.48,3.92-2-1.73-1.23-3,.18-4.06,8.12-6.15,17.11-10.27,27.38-10.88,9-.53,18-1.13,27-.79,6,.22,12,2.07,18,3.07a49.3,49.3,0,0,0,5.71.31Z"/><path d="M336.49,609.72c-1.87,2-2.44,3.1-3.31,3.55-5.22,2.74-11,3.37-16.72,4.25a61,61,0,0,1-40.74-7.73,17.08,17.08,0,0,1-3.58-3.07c-.23-.23.13-1.12.35-1.66a1,1,0,0,1,.77-.52A8.42,8.42,0,0,1,276,605c2.34,1.06,4.59,2.29,6.87,3.46,16.19,8.27,32.67,7.67,49.33,1.6C332.79,609.83,333.46,609.93,336.49,609.72Z"/><path d="M221.15,396c-.36-4-3.51-5.18-6.58-6-6.23-1.57-12.53-2.69-19.06-1.86-10.16,1.29-20.35,2.29-30.43,3.4-1-1.82,0-2.82,1.27-3q15.71-2.31,31.44-4.38c6.87-.89,13.35,1.45,19.9,2.87,1.76.38,3.31,1.91,4.84,3.07,3.1,2.33,2.69,3.6-1.72,5.57Z"/><path class="cls-1" d="M337.34,380.5c1.65-3.53,4.15-4,6.55-4.39,1.86-.33,4.34-3.75,5.43-.22.81,2.62-2.85,2.94-4.85,3.55S340.22,380.1,337.34,380.5Z"/><path class="cls-1" d="M373.08,375.72l5.2,1.43c-2.12,1.36-3.69.36-5-1.57Z"/><path class="cls-1" d="M360.27,376h-6.08C356.45,372.83,358.44,374.51,360.27,376Z"/><path class="cls-1" d="M373.29,375.58l-3.41.54.09-.92c1,.2,2,.39,3.07.55Z"/><path class="cls-1" d="M55.47,472.79c10.15-3.78,10.15-3.78,7.24-12.5,1.29-1.14,2.43-.44,3.22.55q6.22,7.86,12.3,15.85a4.55,4.55,0,0,1,1.08,2.59c0,1.5-.1,3.45-1,4.33a5.18,5.18,0,0,1-4.34.9A30.32,30.32,0,0,1,66.21,481C62.81,478.72,59.7,476,55.47,472.79Z"/><path class="cls-1" d="M53,468.53C48.08,462.67,44,457.85,40,453a4.2,4.2,0,0,1-1-2.65,6.49,6.49,0,0,1,1.17-3.45,2.86,2.86,0,0,1,2.64-.28c3.75,1.8,7.7,3.23,10.64,6.48,2.37,2.62,3.65,5.21,2,8.7C54.65,463.48,54.14,465.36,53,468.53Z"/><path class="cls-1" d="M60,466.11l-1,.82a7.39,7.39,0,0,1-.5-1.33c0-.16.36-.4.56-.6Z"/><path class="cls-1" d="M457.47,411.07c.12.29.4.65.32.87a10.81,10.81,0,0,1-.88,1.64l-.75-.58c.51-.58,1-1.17,1.52-1.76Z"/><path class="cls-1" d="M407,407.52c-4.07,13.47-11.82,15.54-23.25,14.29-7.27-.79-14.35-3.32-22.17-5.24,2-4,5.24-5.15,8.58-5.49a75.71,75.71,0,0,1,11.57-.14C390.29,411.37,399,413.83,407,407.52Z"/><path class="cls-1" d="M241.53,519a9,9,0,0,1,8.43-4.81,2.52,2.52,0,0,1,1.93,1.51,2.9,2.9,0,0,1-1.09,2.34C248.34,519.77,245.61,520.47,241.53,519Z"/></g></g></svg>