<?xml version="1.0" encoding="utf-8"?>
<!-- Generator: Adobe Illustrator 21.0.2, SVG Export Plug-In . SVG Version: 6.00 Build 0)  -->
<svg version="1.1" id="Paso4_1_" xmlns="http://www.w3.org/2000/svg" xmlns:xlink="http://www.w3.org/1999/xlink" x="0px" y="0px"
	 viewBox="0 0 791 558" style="enable-background:new 0 0 791 558;" xml:space="preserve">
<style type="text/css">
	.st0{fill:#FCFCFC;}
</style>
<g>
	<g>
		<g>
			<g>
				<path d="M645.6,491.4H18.8c-5.4,0-9.9-4.4-9.9-9.9V17c0-5.4,4.4-9.9,9.9-9.9h626.8c5.4,0,9.9,4.4,9.9,9.9v464.5
					C655.4,486.9,651,491.4,645.6,491.4z M18.8,9.8c-4,0-7.2,3.2-7.2,7.2v464.5c0,4,3.2,7.2,7.2,7.2h626.8c4,0,7.2-3.2,7.2-7.2V17
					c0-4-3.2-7.2-7.2-7.2H18.8z"/>
			</g>
		</g>
		<g>
			<path class="st0" d="M653.4,34.9H9.9v-23c0-2,1.6-3.6,3.6-3.6h636.3c2,0,3.6,1.6,3.6,3.6V34.9z"/>
			<path d="M654.7,36.3H8.6V18.7C8.6,12.3,13.8,7,20.3,7H643c6.5,0,11.7,5.3,11.7,11.7V36.3z M11.3,33.6h640.8V18.7
				c0-5-4.1-9.1-9.1-9.1H20.3c-5,0-9.1,4.1-9.1,9.1V33.6z"/>
		</g>
		<g>
			<path d="M619.9,21.4l-4.9-4.6h3.8l3.1,2.9l3.1-2.9h3.9l-5.1,4.6l5.9,5.5h-3.8l-4-3.8l-4.1,3.8h-3.9L619.9,21.4z"/>
		</g>
	</g>
	<g>
		<g>
			<g>
				<path d="M777.4,552.2H150.6c-5.4,0-9.9-4.4-9.9-9.9V77.8c0-5.4,4.4-9.9,9.9-9.9h626.8c5.4,0,9.9,4.4,9.9,9.9v464.5
					C787.2,547.8,782.8,552.2,777.4,552.2z M150.6,70.7c-4,0-7.2,3.2-7.2,7.2v464.5c0,4,3.2,7.2,7.2,7.2h626.8c4,0,7.2-3.2,7.2-7.2
					V77.8c0-4-3.2-7.2-7.2-7.2H150.6z"/>
			</g>
		</g>
		<g>
			<path class="st0" d="M785.2,95.8H141.7v-23c0-2,1.6-3.6,3.6-3.6h636.3c2,0,3.6,1.6,3.6,3.6V95.8z"/>
			<path d="M786.6,97.1H140.4V79.6c0-6.5,5.3-11.7,11.7-11.7h622.7c6.5,0,11.7,5.3,11.7,11.7V97.1z M143.1,94.4h640.8V79.6
				c0-5-4.1-9.1-9.1-9.1H152.1c-5,0-9.1,4.1-9.1,9.1V94.4z"/>
		</g>
		<g>
			<path d="M751.7,82.3l-4.9-4.6h3.8l3.1,2.9l3.1-2.9h3.9l-5.1,4.6l5.9,5.5h-3.8l-4-3.8l-4.1,3.8h-3.9L751.7,82.3z"/>
		</g>
	</g>
</g>
</svg>
