<?xml version="1.0" encoding="utf-8"?>
<!-- Generator: Adobe Illustrator 21.0.2, SVG Export Plug-In . SVG Version: 6.00 Build 0)  -->
<svg version="1.1" id="Paso2" xmlns="http://www.w3.org/2000/svg" xmlns:xlink="http://www.w3.org/1999/xlink" x="0px" y="0px"
	 viewBox="0 0 709 617" style="enable-background:new 0 0 709 617;" xml:space="preserve">
<style type="text/css">
	.st0{fill:#FCFCFC;}
</style>
<g>
	<g>
		<path d="M298.7,569.1H19.5c-0.2,0-0.3-0.1-0.4-0.2L2.8,547.3c-0.1-0.1-0.1-0.2-0.1-0.3l0-409.4c0-0.1,0.1-0.3,0.1-0.4
			s0.2-0.1,0.4-0.1h295.5c0.3,0,0.5,0.2,0.5,0.5v431C299.2,568.8,299,569.1,298.7,569.1z M19.8,568.1h278.4v-430H3.7l0,408.8
			L19.8,568.1z"/>
	</g>
	<g>
		<path d="M19.5,569.1c-0.1,0-0.3-0.1-0.4-0.2l-0.1-0.1L2.8,547.3c-0.1-0.2-0.1-0.4,0-0.6s0.3-0.3,0.5-0.2l21.2,2.8
			c0.1,0,0.3,0.1,0.3,0.2c0.1,0.1,0.1,0.3,0.1,0.4l-4.8,18.8c0,0.2-0.2,0.4-0.3,0.4C19.7,569.1,19.6,569.1,19.5,569.1z M4.3,547.7
			l15,19.8l4.4-17.3L4.3,547.7z"/>
	</g>
</g>
<g>
	<g>
		<polygon class="st0" points="454.4,399.6 454.4,219.6 691.9,219.6 705.8,228.6 705.8,399.6 		"/>
		<path d="M705.8,400.1H454.4c-0.3,0-0.5-0.2-0.5-0.5V219.6c0-0.3,0.2-0.5,0.5-0.5h237.5c0.1,0,0.2,0,0.3,0.1l13.9,9
			c0.1,0.1,0.2,0.2,0.2,0.4l0,171.1c0,0.1-0.1,0.3-0.1,0.4S705.9,400.1,705.8,400.1z M454.9,399.1h250.4l0-170.3l-13.5-8.8H454.9
			V399.1z"/>
	</g>
	<g>
		<polygon class="st0" points="687.8,227.4 691.9,219.6 691.9,219.5 691.9,219.6 705.8,228.6 		"/>
		<path d="M705.8,229.1C705.8,229.1,705.8,229.1,705.8,229.1l-18-1.2c-0.2,0-0.3-0.1-0.4-0.3s-0.1-0.3,0-0.5l4.1-7.8
			c0-0.1,0.1-0.2,0.2-0.3c0.2-0.1,0.4-0.1,0.5,0l13.9,9c0.2,0.1,0.3,0.4,0.2,0.6C706.2,228.9,706,229.1,705.8,229.1z M688.6,227
			l15.3,1l-11.8-7.7L688.6,227z"/>
	</g>
</g>
<g>
	<g>
		<polygon class="st0" points="353.7,63.5 388.4,493 110.2,515.6 92.2,495.4 59.1,87.3 		"/>
		<path d="M110.2,516.1c-0.1,0-0.3-0.1-0.4-0.2l-18-20.2c-0.1-0.1-0.1-0.2-0.1-0.3L58.6,87.3c0-0.1,0-0.3,0.1-0.4s0.2-0.2,0.3-0.2
			L353.6,63c0.3,0,0.5,0.2,0.5,0.5L388.9,493c0,0.1,0,0.3-0.1,0.4c-0.1,0.1-0.2,0.2-0.3,0.2L110.2,516.1
			C110.2,516.1,110.2,516.1,110.2,516.1z M92.7,495.2l17.7,19.9l277.5-22.5L353.2,64L59.7,87.8L92.7,495.2z"/>
	</g>
	<g>
		<polygon class="st0" points="113.5,496.4 110.2,515.6 110.2,515.6 110.2,515.6 92.2,495.4 		"/>
		<path d="M110.2,516.1c-0.1,0-0.2,0-0.3-0.1l-18-20.2c-0.1-0.2-0.2-0.4-0.1-0.5s0.3-0.3,0.5-0.3l21.3,1c0.1,0,0.3,0.1,0.4,0.2
			c0.1,0.1,0.1,0.3,0.1,0.4l-3.3,19.1c0,0.2-0.1,0.4-0.3,0.4C110.4,516.1,110.3,516.1,110.2,516.1z M93.4,496l16.5,18.6l3-17.6
			L93.4,496z"/>
	</g>
</g>
<g>
	
		<ellipse transform="matrix(0.9386 -0.3451 0.3451 0.9386 -2.6688 127.8245)" class="st0" cx="357.7" cy="71.4" rx="71.6" ry="60.9"/>
	<path d="M350.4,134.1c-27.3,0-51.7-14.2-60.4-37.8c-11.7-31.8,9.2-68.8,46.5-82.5c18.1-6.6,37.3-6.9,54-0.8
		c16.8,6.2,29.2,18,34.8,33.4l0,0c5.7,15.4,3.9,32.5-4.9,48c-8.8,15.6-23.6,27.8-41.7,34.4C369.4,132.5,359.7,134.1,350.4,134.1z
		 M365.1,9.6c-9.4,0-19,1.7-28.3,5.1c-36.8,13.5-57.4,50-45.9,81.2c11.5,31.2,50.8,45.6,87.6,32.1c17.9-6.6,32.5-18.6,41.1-34
		c8.7-15.3,10.4-32.1,4.8-47.2l0,0c-5.6-15.1-17.7-26.8-34.2-32.8C382.3,11.1,373.8,9.6,365.1,9.6z"/>
</g>
<g>
	<rect x="426.4" y="540.3" class="st0" width="109.5" height="74.1"/>
	<path d="M535.9,614.9H426.4c-0.3,0-0.5-0.2-0.5-0.5v-74.1c0-0.3,0.2-0.5,0.5-0.5h109.5c0.3,0,0.5,0.2,0.5,0.5v74.1
		C536.4,614.6,536.2,614.9,535.9,614.9z M426.9,613.9h108.5v-73.1H426.9V613.9z"/>
</g>
<g>
	<g>
		<path d="M307,82.3c1.9-8.8,5.3-16.4,10.7-23.7c-2.3-0.3-4.6-0.6-6.9-0.9c2.1,14,5.6,27.5,10.6,40.7c1.2,3.1,5,3.8,6.9,0.9
			c7.7-11.6,15.5-23.3,23.2-34.9c-2.2,0-4.4,0-6.5,0c2.6,4.7,4.7,9.5,6.4,14.6c1,2.9,5.4,4,6.9,0.9c1-1.9,6.2-15.4,7.9-15.6
			c1-0.2,7.7,5.3,9.3,5.9c5.1,1.7,9.5,1.3,13.9-1.7c4-2.7,0.2-9.3-3.8-6.5c-9.8,6.7-14-8.2-22.3-5c-6,2.3-9,14.1-11.6,19.2
			c2.3,0.3,4.6,0.6,6.9,0.9c-1.9-5.8-4.2-11.1-7.2-16.4c-1.4-2.6-5-2.3-6.5,0c-7.7,11.6-15.5,23.3-23.2,34.9
			c2.3,0.3,4.6,0.6,6.9,0.9c-5.1-13.2-8.6-26.7-10.6-40.7c-0.5-3.6-5.3-3.2-6.9-0.9c-5.8,7.8-9.4,16-11.4,25.5
			C298.7,85.1,306,87.1,307,82.3L307,82.3z"/>
	</g>
</g>
<g>
	<g>
		<path d="M484.4,572.6c4.9,0,4.9-7.6,0-7.6C479.5,565,479.5,572.6,484.4,572.6L484.4,572.6z"/>
	</g>
</g>
<g>
	<g>
		<path d="M455,571.9c4.9,0,4.9-7.6,0-7.6C450.1,564.4,450.1,571.9,455,571.9L455,571.9z"/>
	</g>
</g>
<g>
	<g>
		<path d="M458.4,600.7c4.9,0,4.9-7.6,0-7.6C453.5,593.1,453.5,600.7,458.4,600.7L458.4,600.7z"/>
	</g>
</g>
<g>
	<g>
		<path d="M475.4,591.1c12.2,1,24.9-4.8,26.1-18.2c0.4-4.9-7.1-4.8-7.6,0c-0.8,9.1-11.1,11.2-18.5,10.6
			C470.5,583.1,470.6,590.7,475.4,591.1L475.4,591.1z"/>
	</g>
</g>
<g>
	<g>
		<path d="M505.6,592.5c2.5,0,5,0,7.5,0c4.9,0,4.9-7.6,0-7.6c-2.5,0-5,0-7.5,0C500.7,584.9,500.7,592.5,505.6,592.5L505.6,592.5z"/>
	</g>
</g>
<g>
	<g>
		<path d="M501.8,556.9c7.9,7.6,15.8,15.1,23.8,22.7c3.5,3.4,8.9-2,5.4-5.4c-7.9-7.6-15.8-15.1-23.8-22.7
			C503.6,548.2,498.2,553.5,501.8,556.9L501.8,556.9z"/>
	</g>
</g>
<path d="M180.2,220.1c0.9,0.2,1.3,1.1,1.4,2c2.6,32.9,5.3,65.4,7.9,98.3c0.1,1.5-0.1,2.2-2,2.3c-2.4,0.2-4.6,0.4-7,0.6
	c-0.3,0-0.6,0-0.9,0.1c0.1,1.2,0.2,2.7,0.3,4c0.1,1.2-0.5,1.9-1.7,2c-2.7,0.2-5.5,0.4-8.2,0.7c0.1,0.9,0.2,2.1,0.2,3
	c0.2,2.7-0.4,2.8-2.5,3c-2.4,0.2-4.9,0.4-7.3,0.6c0.1,0.9,0.1,1.5,0.2,2.4c0,0.6,0.1,0.9,0.1,1.5c0.1,1.2-0.5,1.9-1.7,2
	c-2.4,0.2-4.9,0.4-7.3,0.6c-0.3,0-0.6,0-0.9,0.1c0.1,1.2,0.2,2.4,0.3,3.7c0.1,1.5-0.4,2.2-2,2.3c-16.7,1.3-33.8,2.7-50.5,4.1
	c-1.5,0.1-2.2-0.4-2.3-2c-2.6-32.9-5.3-65.4-7.9-98.3c-0.1-1.5,0.4-2.2,2-2.3c2.4-0.2,4.9-0.4,7-0.6c0.3,0,0.6,0,0.9-0.1
	c-0.1-1.2-0.2-2.1-0.3-3.3c0-0.3,0-0.6-0.1-0.9c-0.1-0.9,0.5-1.6,1.4-1.6c2.4-0.2,5.2-0.4,7.6-0.6c0.3,0,0.6,0,0.9-0.1
	c-0.1-1.2-0.2-2.4-0.3-3.7c-0.1-1.8,0.1-2.2,2-2.3c2.4-0.2,4.6-0.4,7-0.6c0.3,0,0.6,0,0.9-0.1c-0.1-1.2-0.2-2.4-0.3-3.7
	c-0.1-1.8,0.1-2.2,2-2.3c2.4-0.2,5.2-0.4,7.6-0.6c0,0,0,0,0.3,0c-0.1-1.2-0.2-2.4-0.3-3.7c-0.1-0.9,0.2-1.9,1-2.2
	C145.5,222.9,162.9,221.5,180.2,220.1z M186.1,319.5c-2.6-32-5.2-64.2-7.7-96.2c-16.1,1.3-32.3,2.6-48.4,3.9
	c0.1,0.9,0.1,1.8,0.2,2.7c0.3,0,0.6,0,0.9-0.1c12.8-1,25.6-2.1,38.3-3.1c0.6,0,0.9-0.1,1.5,0.2c1,0.5,1,1.1,1.1,1.8
	c2.4,30.1,4.8,60.3,7.3,90.4c0,0.3,0,0.6,0.1,0.9C181.5,319.9,183.9,319.7,186.1,319.5z M147.9,343.4c-0.3,0-0.6,0-0.9,0.1
	c-12.8,1-25.6,2.1-38.3,3.1c-1.8,0.1-2.2-0.1-2.3-2c-2.4-30.1-4.8-60.3-7.2-90.1c0-0.3,0-0.6-0.1-0.9c-2.4,0.2-4.6,0.4-7,0.6
	c2.6,32,5.2,64.2,7.7,96.2c16.1-1.3,32.3-2.6,48.4-3.9C148,344.9,147.9,344.3,147.9,343.4z M102,252.7c2.4,30.1,4.8,60.3,7.3,90.4
	c12.8-1,25.6-2.1,38.3-3.1c-0.1-0.9-0.1-1.8-0.2-2.7c-0.3,0-0.6,0-0.9,0.1c-9.4,0.8-18.6,1.5-28,2.3c-1.8,0.1-2.5-0.1-2.6-1.9
	c-2.3-28-4.5-56.3-6.8-84.3c0-0.3,0-0.6-0.1-1.2C106.6,252.4,104.1,252.6,102,252.7z M130.9,235.7c0.3,0,0.6,0,0.9-0.1
	c9.4-0.8,18.9-1.5,28.3-2.3c1.8-0.1,2.2,0.1,2.3,2c2.3,28.3,4.5,56.3,6.8,84.6c0,0.3,0,0.6,0.1,0.9c2.4-0.2,4.6-0.4,7-0.6
	c-2.4-30.1-4.8-60.3-7.3-90.4c-12.8,1-25.6,2.1-38.3,3.1C130.8,233.9,130.9,234.8,130.9,235.7z M112.1,252.2
	c2.3,28.3,4.5,56.3,6.8,84.6c9.4-0.8,18.9-1.5,28.3-2.3c-0.1-0.9-0.1-1.8-0.2-2.7c-0.3,0-0.6,0-0.9,0.1c-6.1,0.5-12.2,1-18.3,1.5
	c-1.5,0.1-2.2-0.1-2.3-2c-2.1-26.2-4.2-52.6-6.3-78.8c0-0.3,0-0.6-0.1-0.9C116.6,251.9,114.2,252.1,112.1,252.2z M131.4,241.5
	c0.3,0,0.6,0,0.9-0.1c6.1-0.5,12.5-1,18.6-1.5c1.2-0.1,1.9,0.5,2,1.7c0,0.3,0,0.3,0,0.6c2.1,26.2,4.2,52.3,6.3,78.2
	c0,0.3,0,0.6,0.1,0.9c2.4-0.2,4.6-0.4,7-0.6c-2.3-28.3-4.5-56.3-6.8-84.6c-9.4,0.8-18.9,1.5-28.3,2.3
	C131.3,239.7,131.3,240.6,131.4,241.5z M145.9,322.7c-2-24.3-3.9-48.7-5.9-73c-2.7,0.2-5.5,0.4-8.2,0.7c2,24.3,3.9,48.7,5.9,73
	C140.7,323.1,143.5,322.9,145.9,322.7z M155.9,321.9c-2.1-26.2-4.2-52.3-6.3-78.8c-6.1,0.5-12.2,1-18.3,1.5c0.1,0.9,0.1,1.8,0.2,2.7
	c0.3,0,0.6,0,0.9-0.1c2.7-0.2,5.8-0.5,8.5-0.7c1.2-0.1,1.9,0.5,2,1.7c0,0.3,0,0.6,0,0.6c1.9,24,3.9,48.4,5.8,72.4
	c0,0.3,0,0.6,0.1,1.2c2.1-0.2,4.3-0.3,6.4-0.5C155.6,321.9,155.9,321.9,155.9,321.9z M146.5,325.7c-0.3,0-0.6,0-0.9,0.1
	c-2.7,0.2-5.5,0.4-8.2,0.7c-1.8,0.1-2.5-0.1-2.6-1.9c-2-24.3-3.9-48.7-5.9-72.7c0-0.3,0-0.6-0.1-0.9c-2.4,0.2-4.6,0.4-7,0.6
	c2.1,26.2,4.2,52.3,6.3,78.8c6.1-0.5,12.2-1,18.3-1.5C146.6,327.6,146.6,327,146.5,325.7z M117.8,239.8c-2.4,0.2-4.6,0.4-7,0.6
	c0.1,0.9,0.1,1.8,0.2,2.7c2.4-0.2,4.6-0.4,7-0.6C117.9,241.7,117.9,241.1,117.8,239.8z M121.4,242.3c2.4-0.2,4.6-0.4,7-0.6
	c-0.1-0.9-0.1-1.8-0.2-2.7c-2.1,0.2-4.3,0.3-6.4,0.5l-0.3,0.3C121.2,240.8,121.3,241.7,121.4,242.3z M101.5,247
	c0.1,0.9,0.1,1.8,0.2,2.7c2.1-0.2,4.3-0.3,6.4-0.5c0.3,0,0.3-0.3,0.3-0.6c0-0.6-0.1-1.2-0.1-1.5c0-0.6-0.4-0.6-0.7-0.6
	c-1.5,0.1-3.3,0.3-4.9,0.4C102.4,246.9,101.8,246.9,101.5,247z M128.5,247.5c-0.1-0.9-0.1-1.8-0.2-2.7c-1.5,0.1-3.3,0.3-4.9,0.4
	c-2.1,0.2-2.1,0.2-2,2.3l0,0.3l0.3,0.3C124.3,247.9,126.4,247.7,128.5,247.5z M111.8,248.9c2.4-0.2,4.6-0.4,7-0.6
	c-0.1-0.9-0.1-1.8-0.2-2.7c-2.4,0.2-4.6,0.4-7,0.6C111.7,247.4,111.7,248,111.8,248.9z M156.4,327.7c-0.1-0.9-0.1-1.8-0.2-2.7
	c-2.4,0.2-4.6,0.4-7,0.6c0.1,0.9,0.1,1.8,0.2,2.7C151.8,328.1,154.3,327.9,156.4,327.7z M176.6,323.6c-2.4,0.2-4.6,0.4-7,0.6
	c0.1,0.9,0.1,1.8,0.2,2.7c2.4-0.2,4.6-0.4,7-0.6C176.7,325.1,176.7,324.5,176.6,323.6z M150,331.6c0.1,0.9,0.1,1.8,0.2,2.7
	c2.4-0.2,4.6-0.4,7-0.6c-0.1-0.9-0.1-1.8-0.2-2.7C154.6,331.2,152.4,331.4,150,331.6z M120.9,236.5c2.4-0.2,4.6-0.4,7-0.6
	c-0.1-0.9-0.1-1.8-0.2-2.7c-2.4,0.2-4.6,0.4-7,0.6C120.8,234.7,120.8,235.6,120.9,236.5z M150.5,337.4c0.1,0.9,0.1,1.8,0.2,2.7
	c2.4-0.2,4.6-0.4,6.7-0.5c-0.1-0.9-0.1-1.8-0.2-2.7C155,337,152.6,337.2,150.5,337.4z M159.8,327.4c2.4-0.2,4.6-0.4,7-0.6
	c-0.1-0.9-0.1-1.8-0.2-2.7c-2.4,0.2-4.6,0.4-7,0.6C159.6,325.9,159.7,326.5,159.8,327.4z M166.7,330.2c-2.4,0.2-4.6,0.4-7,0.6
	c0.1,0.9,0.1,1.8,0.2,2.7c2.4-0.2,4.6-0.4,7-0.6C166.8,331.8,166.8,331.1,166.7,330.2z"/>
<g>
	<path d="M271.3,274.6c0.7-2.8,1.7-5.3,1.8-8.1c0.2-1.5-0.5-3-1.9-4.1c-1-0.8-1.9-1.1-2.8-0.7c-0.6,0-0.9-0.2-0.7-0.6
		c0.3-0.6,0.5-1.3,1.1-1.9c2.8-2.7,7.2-1.5,8.4,2.1c0.8,2.7,0.4,5.2-0.9,7.4c-0.8,1.6-1.6,2.9-2.4,4.5c-0.3,0.3-0.5,1-0.5,1.3
		c-0.8,1.6-1.3,3.2,0.1,4.9l0,0.3l0,0c-3,0.2-5.8,0.5-8.8,0.7c1.1-1.9,0.3-3.4-0.4-5.2c-0.4-1.5-1.1-2.7-1.9-4.4
		c-0.7,2.5-1.4,5-1.8,7.5c0,0.3,0,0.6,0.1,1.2c0,0.3,0.4,0.9,0.4,1.2c-3,0.2-5.8,0.5-8.8,0.7c0.7-2.2-0.3-4-0.8-5.8
		c-1.5-3.9-2.8-7.7-4-11.3c-0.4-1.2-1.4-2.6-2.1-3.8c3-0.2,6.1-0.5,9.4-0.8c-0.8,1.6-0.4,3.1,0.4,4.6c1.2,3.6,2.7,7.1,3.9,10.7
		c0,0,0,0,0.3,0c0-0.3,0.3-0.3,0.3-0.6c0.5-1.9,0.9-4.1,1.4-5.9c0-0.3-0.1-0.9-0.1-1.2c-0.4-1.2-1.1-2.1-1.5-3.2
		c-0.4-1.5-1.5-2.9-2.8-4.1c3.3-0.3,6.7-0.5,10-0.8l0,0.3c-0.5,1.3-0.4,2.5,0,3.7C267.9,266.7,269.4,270.5,271.3,274.6
		C271,274.7,271.3,274.6,271.3,274.6z"/>
	<path d="M198.8,264.2c0.4,5.5,0.9,11.3,1.3,16.7c0.1,1.2,0.8,2.4,1.5,3.6c0,0.3,0.4,0.6,0.4,0.9c-1.8,0.1-3.3,0.3-5.2,0.4
		c0.2-0.9,0.5-1.9,0.7-2.8c0.2-0.9,0.2-1.5,0.1-2.5c-0.5-6.1-1-12.5-1.5-18.6c-0.1-1.5-0.5-2.7-1.5-3.9c0-0.3-0.4-0.6-0.4-0.9
		c0.3,0,0.6,0,0.6,0c2.4-0.2,4.9-0.4,7.3-0.6c0.3,0,0.6,0.3,0.6,0.3c1.1,2.7,3.1,4.6,5.4,6.6c1.9,1.4,3.6,3.1,5.3,4.8
		c0.7,0.9,1.4,1.7,2,2.6c0-0.3,0-0.6-0.1-0.9c-0.3-3.3-0.5-6.4-0.8-9.7c-0.1-1.5-0.8-2.7-1.6-4.2c0-0.3-0.3-0.3-0.4-0.6
		c1.8-0.1,3.7-0.3,5.5-0.4c-0.3,0.3-0.3,0.6-0.5,1c-0.8,1.6-0.9,3.4-0.8,5.3c0.6,7.3,1.2,14.3,1.7,21.6c0,0.3,0,0.6,0.1,0.9
		c-1.2,0.1-2.1,0.2-3,0.2c-0.3,0-0.3-0.3-0.7-0.6c-1.1-1.8-1.8-3.2-3.2-5c-1.4-2.3-3.7-3.7-5.7-5.7c-2-1.7-4-3.7-5.9-5.3
		C200.5,266.9,199.8,265.4,198.8,264.2z"/>
	<path d="M243.7,271c-4.6,0.4-8.8,0.7-13.4,1.1c0.2,2.4,0.1,4.9,1.5,6.9c1.1,2.1,4.2,2.4,6.2,1c2-1.4,2.4-3.9,1.1-5.6
		c0-0.3-0.3-0.3-0.4-0.6c1.2-0.7,2.1-0.8,3.1,0.1c1.3,0.8,1.4,1.7,1.5,3.2c-0.2,1.5-0.7,2.5-1.9,3.5c-1.7,1.4-3.5,2.1-5.6,2.3
		c-1.8,0.1-3.7,0.3-5.5-0.2c-4.4-0.9-7.4-4.3-8.1-8.8c-0.5-2.1-0.3-4.3,0.4-6.5c1.5-4.1,4.4-6.2,8.6-6.8c2.4-0.5,4.9-0.1,7.1,0.7
		c2.9,1.3,4.6,3.6,5.1,6.6C243.6,269.2,243.7,270.1,243.7,271z M235.7,269.9c-0.1-1.5-0.2-3-0.4-4.6c0-0.6-0.1-0.9-0.4-1.5
		c-0.4-1.2-1.3-1.4-2.6-1.3c-0.9,0.1-1.8,1.1-2,2.3c-0.2,1.2-0.1,2.5,0,3.7c0,0.6,0.1,1.2,0.1,1.8
		C232.3,270.1,233.9,270,235.7,269.9z"/>
</g>
<g>
	<path d="M303.4,247.6c8.2-0.7,15.1,5.2,15.8,13.4c1,8.8-5.2,15.7-13.4,16.4c-8.2,0.7-15.1-5.2-15.8-13.4
		C289,255.1,294.9,248.2,303.4,247.6z M312.2,261.6c0-0.6-0.1-1.5-0.5-2.4c-0.9-3-2.8-4.7-5.9-5c-3.1-0.4-5.8,0.5-7.4,3.4
		c-1.3,2.6-1.4,5.3-0.6,8c1.7,5.4,8.5,7.3,12.5,3C311.7,266.8,312.1,264.3,312.2,261.6z"/>
	<path d="M359,272.8c-2.4,0.2-4.6,0.4-7,0.6c-0.1-1.2-0.2-2.4-0.3-3.7c-0.3,0-0.3,0.3-0.3,0.3c-2,5.1-9.3,5.7-13.3,2.6
		c-2.3-2-3.4-4.3-3.9-7c-0.6-3.3-0.6-7,1.3-9.9c3-5.1,9.7-5.7,12.6-3.5c1,0.5,1.6,1.4,2.3,2.3c-0.1-1.8-0.3-3.7-0.4-5.5
		c-0.1-1.8-0.3-3.7-0.4-5.5c2.4-0.2,4.6-0.4,7-0.6C357.4,252.4,358.2,262.4,359,272.8z M341.1,262.6
		C341.1,262.6,341.4,262.6,341.1,262.6c0,0.3,0,0.6,0.1,0.9c0.5,2.1,1.5,3.6,3.4,4c2.2,0.4,4.3,0,5.4-2c1.1-1.6,1.2-3.8,0.8-5.6
		c-0.5-2.4-2.8-3.8-4.9-3.6c-2.4,0.2-4.2,1.6-4.6,4C341.3,261.4,341.3,262,341.1,262.6z"/>
	<path d="M321.9,245.2c2.4-0.2,4.6-0.4,7-0.6c0.8,10,1.6,20.1,2.4,30.4c-2.4,0.2-4.6,0.4-7,0.6C323.5,265.5,322.7,255.2,321.9,245.2
		z"/>
</g>
<g>
	<path d="M215.4,303c3.3-0.3,7-0.6,10.3-0.8l0,0.3c-0.8,1.3-0.7,2.8-0.6,4.3c0.2,2.7,0.5,5.8,0.7,8.5c0.1,0.9,0.8,1.8,1.1,2.7
		c0,0.3,0.4,0.6,0.7,0.9c-0.3,0-0.3,0-0.6,0c-4.6,0.4-8.8,0.7-13.4,1.1c-7.3,0.6-13.2-3.8-14.7-11.1c-0.5-3-0.8-5.8,0.2-8.6
		c1.7-5,5.2-7.8,10-8.8c2.1-0.5,4.6-0.4,6.7-0.2c1.5-0.1,3.1,0.1,4.9,0.2c0.9-0.1,2.1-0.5,3-0.9c0.6-0.4,0.9-0.1,1,0.5
		c0,0.3,0,0.6,0.1,0.9c-0.9,4.4-4.1,6.5-8.1,5.6c-0.3,0-0.6-0.3-1-0.5c-0.3-0.3-0.7-0.6-0.7-1.2c0.2-1.9-1.8-3.5-3.9-3.1
		c-1.5,0.4-2.4,1.1-3.2,2.4c-0.8,1.6-1.3,3.5-1.1,5.6c0,3.7,0.3,7.6,1.5,11.2c1.5,3.9,4.1,5.5,8.1,5.5c0.3,0,0.6,0,0.9-0.1
		c0.3,0,0.6-0.4,0.5-1c-0.3-4-0.6-7.6-0.9-11.6c0-0.3-0.4-0.9-0.4-1.2C216.4,303.9,216,303.6,215.4,303z"/>
	<path d="M340.3,287.8c2.4-0.2,4.9-0.4,7.3-0.6c0,0.3,0,0.3-0.3,0.6c-3.4,10.7-7.2,21.4-10.6,32.1c-0.3,0.6-0.6,0.7-1.2,0.7
		c-2.1,0.2-4.3,0.3-6.7,0.5c0-0.3,0.3-0.6,0.2-0.9c1.3-3.5,2.5-6.6,3.8-10.1c0.3-0.6,0.2-0.9-0.1-1.5c-3.3-6.2-6.8-12.6-10.1-18.8
		c0-0.3-0.3-0.3-0.4-0.9c0.9-0.1,1.5-0.1,2.4-0.2s1.8-0.1,2.7-0.2c0.9-0.1,1.8-0.5,2.4-0.2c0.6,0.3,0.7,1.5,1.1,2.1
		c1.8,3.5,3.3,7.1,5.1,10.6C337.7,296.9,338.9,292.5,340.3,287.8z"/>
	<path d="M243.1,316.1c-0.3,0.3-0.6,0.4-0.9,0.7c-2.6,2-5.3,2.6-8.4,1.6c-4.1-1.5-5.1-6.6-2.3-9.9c1.1-1,2.3-2,3.5-2.4
		c1.8-0.8,3.6-1.5,5.3-2.6c1.8-0.8,1.9-3.2,0.6-4.3c-0.7-0.6-2.2-0.7-2.8-0.1c-0.6,0.4-0.5,1-0.2,1.5c0.7,1.2,0.7,1.5-0.7,2.2
		c-2.9,1.5-4.8,0.7-6.6-1.9c-0.7-1.2-1.1-2.4-1.2-3.6c0,0,0,0,0.3,0c2.8,1,5.2,0.2,7.9-0.3c2.4-0.5,4.5-0.7,7-0.3
		c2.2,0.4,3.5,1.6,4,3.7c0.4,1.2,0.5,2.7,0.6,3.9c0.2,2.7,0.4,5.5,0.7,8.2c0.1,1.5,0.5,2.7,0.9,3.9c0,0.3,0,0.6,0.4,0.9
		c-0.9,0.1-1.8,0.1-3,0.2s-2.7,0.2-4,0.3c-0.6,0-0.9-0.2-1.3-0.8C243.4,316.7,243.4,316.4,243.1,316.1z M242.2,305.2
		c-0.3,0-0.6,0.4-0.9,0.4c-2,1.4-3.1,3.3-3.5,5.8c-0.2,1.2,0.2,2.1,0.9,3.3c0.7,0.9,1.6,1.1,2.5,0.7c0.9-0.4,2-1.7,1.9-2.6
		c-0.1-1.5-0.3-3.3-0.4-4.9C242.3,307,242.3,306.1,242.2,305.2z"/>
	<path d="M301.7,302.2c-4.6,0.4-8.8,0.7-13.4,1.1c0.2,2.4,0.1,5.2,1.5,7.2c1.1,1.8,4.2,2.1,6.2,1c1.8-1.1,2.5-3.6,1.1-5.6
		c0-0.3-0.3-0.3-0.4-0.6c1.4-1.3,4-0.3,4.4,1.5c0.5,1.8,0,3.4-1.2,4.7c-1.4,1.6-3.5,2.4-5.6,2.9c-2.4,0.5-4.6,0.4-6.8-0.4
		c-4.1-1.2-6.8-4.1-7.4-8.3c-0.4-1.5-0.3-3.3-0.1-4.9c0.3-3.4,2.3-6,5.5-7.5c2.7-1.1,5.4-1.7,8.5-1c5,1.4,6.8,4.1,7.4,8.3
		C301.6,301,301.6,301.6,301.7,302.2z M293.6,300.7c-0.1-0.9-0.1-1.5-0.2-2.4c-0.1-0.9-0.2-2.1-0.5-3c-0.4-0.9-1-1.4-2-1.7
		c-1.2,0.1-2.4,0.8-2.6,2c-0.2,1.5,0,3.4-0.2,4.9c0,0.3,0,0.3,0,0.6C290.3,301,291.8,300.9,293.6,300.7z"/>
	<path d="M267.3,285.4c2.4-0.2,4.6-0.4,7-0.6c0.8,10,1.6,20.1,2.4,30.4c-2.4,0.2-4.6,0.4-7,0.6C268.9,305.5,268.1,295.4,267.3,285.4
		z"/>
	<path d="M313.8,312c-3,0.2-6.1,0.5-9.1,0.7c1.1-1.3,1-2.5,0.9-4.1c-0.4-4.6-0.7-8.8-1.1-13.4c-0.1-1.2-0.5-2.4-1.2-3.6
		c0-0.3-0.4-0.6-0.4-0.9c2.7-0.2,5.2-0.4,7.9-0.6c0,0.6,0.1,1.2,0.1,1.8c0.3-0.3,0.6-0.7,0.9-0.7c1.4-1.3,3.5-2.1,5.4-1.7
		c2.5,0.7,3.9,2.4,4.4,4.9c0.4,1.2,0.5,2.4,0,3.4c0,0.3-0.6,0.7-0.6,0.7c-2.1,0.2-4,0.3-6.1,0.5c0,0-0.3,0,0,0
		c0.2-1.2,0.1-2.5,0.3-3.4c0-0.6-0.1-0.9-0.4-1.5c-0.7-1.2-2.3-1.4-3.1-0.1c-0.6,0.7-0.5,1.6-0.4,2.5c0.1,1.5,0.2,3,0.3,4.3
		c0.2,2.1,0.3,4,0.5,6.1C312.3,309,312.5,310.5,313.8,312z"/>
	<path d="M253.6,286.5c2.4-0.2,4.6-0.4,7-0.6c0.8,10,1.6,20.1,2.4,30.4c-2.4,0.2-4.6,0.4-7,0.6C255.2,306.6,254.4,296.5,253.6,286.5
		z"/>
</g>
<g>
	<path d="M212.9,249.9c-1.5,0.1-2.7,0.2-4,0.3c-0.5-5.8-1-11.9-1.4-17.7c1.2-0.1,2.7-0.2,4-0.3c0.2,2.1,0.3,4.3,0.5,6.7
		c1.1-1.9,2.5-2.7,4.4-2.8c2.8,0.1,4.7,1.5,4.9,4.2c0.2,3,0.5,5.8,0.7,8.8c-1.2,0.1-2.7,0.2-4,0.3c-0.1-0.9-0.1-1.8-0.2-2.7
		c-0.1-1.5-0.2-3-0.4-4.6c-0.1-1.5-1.1-2.7-2.7-2.5c-1.5,0.1-2.7,1.1-2.5,3c0.2,2.1,0.4,4.6,0.5,6.7
		C212.9,249.3,212.9,249.6,212.9,249.9z"/>
	<path d="M236.9,243.4c-0.2,1.5-0.7,2.5-1.9,3.5c-2.8,2.7-9.3,2.9-11.2-2.5c-0.8-2.7-0.7-5.1,1.2-7.5c2-2.3,4.7-2.5,7.5-1.8
		c2.5,0.7,3.9,2.7,4.4,5.5c0,0.3,0,0.3,0,0.6c0,0.3,0,0.6,0.1,0.9c-3,0.2-6.1,0.5-9.1,0.7c-0.2,1.2,0.5,2.4,1.7,2.6
		c1.3,0.5,2.4-0.2,3.2-1.8C234.2,243.6,235.4,243.5,236.9,243.4z M227.5,241.1c1.8-0.1,3.3-0.3,5.2-0.4c-0.1-1.5-1.1-2.4-2.6-2.2
		C228.5,238.3,227.7,239.3,227.5,241.1z"/>
	<path d="M205.5,233.7c0.1,1.2,0.2,2.1,0.3,3.3c-1.5,0.1-3,0.2-4.6,0.4c0.4,4.6,0.7,9.1,1.1,13.7c-1.5,0.1-2.7,0.2-4.3,0.3
		c-0.4-4.6-0.7-9.1-1.1-13.7c-1.5,0.1-3,0.2-4.6,0.4c-0.1-1.2-0.2-2.1-0.3-3.3C196.7,234.4,201.2,234,205.5,233.7z"/>
</g>
<path d="M549.1,258.7c0.7,0.2,1,0.9,1,1.6c0.3,25.4,0.7,50.6,1,76.1c0,1.2-0.2,1.7-1.6,1.7c-1.9,0-3.5,0-5.4,0.1c-0.2,0-0.5,0-0.7,0
	c0,0.9,0,2.1,0,3.1c0,0.9-0.5,1.4-1.4,1.4c-2.1,0-4.2,0.1-6.4,0.1c0,0.7,0,1.6,0,2.4c0,2.1-0.4,2.1-2.1,2.1c-1.9,0-3.8,0-5.7,0.1
	c0,0.7,0,1.2,0,1.9c0,0.5,0,0.7,0,1.2c0,0.9-0.5,1.4-1.4,1.4c-1.9,0-3.8,0-5.7,0.1c-0.2,0-0.5,0-0.7,0c0,0.9,0,1.9,0,2.8
	c0,1.2-0.4,1.7-1.6,1.7c-13,0.2-26.1,0.3-39.1,0.5c-1.2,0-1.7-0.4-1.7-1.6c-0.3-25.4-0.7-50.6-1-76.1c0-1.2,0.4-1.7,1.6-1.7
	c1.9,0,3.8,0,5.4-0.1c0.2,0,0.5,0,0.7,0c0-0.9,0-1.6,0-2.6c0-0.2,0-0.5,0-0.7c0-0.7,0.5-1.2,1.2-1.2c1.9,0,4-0.1,5.9-0.1
	c0.2,0,0.5,0,0.7,0c0-0.9,0-1.9,0-2.8c0-1.4,0.2-1.7,1.6-1.7c1.9,0,3.5,0,5.4-0.1c0.2,0,0.5,0,0.7,0c0-0.9,0-1.9,0-2.8
	c0-1.4,0.2-1.7,1.6-1.7c1.9,0,4-0.1,5.9-0.1c0,0,0,0,0.2,0c0-0.9,0-1.9,0-2.8c0-0.7,0.2-1.4,0.9-1.7
	C522.2,259,535.6,258.8,549.1,258.7z M548.4,335.5c-0.3-24.7-0.6-49.7-1-74.4c-12.5,0.2-25,0.3-37.4,0.5c0,0.7,0,1.4,0,2.1
	c0.2,0,0.5,0,0.7,0c9.9-0.1,19.8-0.3,29.7-0.4c0.5,0,0.7,0,1.2,0.2c0.7,0.5,0.7,0.9,0.7,1.4c0.3,23.3,0.6,46.6,0.9,69.9
	c0,0.2,0,0.5,0,0.7C544.9,335.5,546.8,335.5,548.4,335.5z M517.8,351.9c-0.2,0-0.5,0-0.7,0c-9.9,0.1-19.8,0.3-29.7,0.4
	c-1.4,0-1.7-0.2-1.7-1.6c-0.3-23.3-0.6-46.6-0.9-69.7c0-0.2,0-0.5,0-0.7c-1.9,0-3.5,0-5.4,0.1c0.3,24.7,0.6,49.7,1,74.4
	c12.5-0.2,25-0.3,37.4-0.5C517.8,353.1,517.8,352.6,517.8,351.9z M487.1,279.7c0.3,23.3,0.6,46.6,0.9,69.9
	c9.9-0.1,19.8-0.3,29.7-0.4c0-0.7,0-1.4,0-2.1c-0.2,0-0.5,0-0.7,0c-7.3,0.1-14.4,0.2-21.7,0.3c-1.4,0-1.9-0.2-1.9-1.6
	c-0.3-21.7-0.6-43.6-0.8-65.2c0-0.2,0-0.5,0-0.9C490.7,279.7,488.8,279.7,487.1,279.7z M510.3,268.1c0.2,0,0.5,0,0.7,0
	c7.3-0.1,14.6-0.2,21.9-0.3c1.4,0,1.7,0.2,1.7,1.6c0.3,21.9,0.6,43.6,0.8,65.5c0,0.2,0,0.5,0,0.7c1.9,0,3.5,0,5.4-0.1
	c-0.3-23.3-0.6-46.6-0.9-69.9c-9.9,0.1-19.8,0.3-29.7,0.4C510.3,266.7,510.3,267.4,510.3,268.1z M494.9,279.9
	c0.3,21.9,0.6,43.6,0.8,65.5c7.3-0.1,14.6-0.2,21.9-0.3c0-0.7,0-1.4,0-2.1c-0.2,0-0.5,0-0.7,0c-4.7,0.1-9.4,0.1-14.1,0.2
	c-1.2,0-1.7-0.2-1.7-1.6c-0.3-20.3-0.5-40.7-0.8-61c0-0.2,0-0.5,0-0.7C498.5,279.8,496.6,279.8,494.9,279.9z M510.4,272.6
	c0.2,0,0.5,0,0.7,0c4.7-0.1,9.7-0.1,14.4-0.2c0.9,0,1.4,0.5,1.4,1.4c0,0.2,0,0.2,0,0.5c0.3,20.3,0.5,40.5,0.8,60.5
	c0,0.2,0,0.5,0,0.7c1.9,0,3.5,0,5.4-0.1c-0.3-21.9-0.6-43.6-0.8-65.5c-7.3,0.1-14.6,0.2-21.9,0.3
	C510.4,271.2,510.4,271.9,510.4,272.6z M517.3,335.9c-0.2-18.8-0.5-37.7-0.7-56.5c-2.1,0-4.2,0.1-6.4,0.1
	c0.2,18.8,0.5,37.7,0.7,56.5C513.3,335.9,515.4,335.9,517.3,335.9z M525.1,335.8c-0.3-20.3-0.5-40.5-0.8-61
	c-4.7,0.1-9.4,0.1-14.1,0.2c0,0.7,0,1.4,0,2.1c0.2,0,0.5,0,0.7,0c2.1,0,4.5-0.1,6.6-0.1c0.9,0,1.4,0.5,1.4,1.4c0,0.2,0,0.5,0,0.5
	c0.2,18.6,0.5,37.4,0.7,56.1c0,0.2,0,0.5,0,0.9c1.6,0,3.3,0,4.9-0.1C524.8,335.8,525.1,335.8,525.1,335.8z M517.6,338.2
	c-0.2,0-0.5,0-0.7,0c-2.1,0-4.2,0.1-6.4,0.1c-1.4,0-1.9-0.2-1.9-1.6c-0.2-18.8-0.5-37.7-0.7-56.3c0-0.2,0-0.5,0-0.7
	c-1.9,0-3.5,0-5.4,0.1c0.3,20.3,0.5,40.5,0.8,61c4.7-0.1,9.4-0.1,14.1-0.2C517.6,339.6,517.6,339.2,517.6,338.2z M500,270.6
	c-1.9,0-3.5,0-5.4,0.1c0,0.7,0,1.4,0,2.1c1.9,0,3.5,0,5.4-0.1C500,272,500,271.5,500,270.6z M502.6,272.7c1.9,0,3.5,0,5.4-0.1
	c0-0.7,0-1.4,0-2.1c-1.6,0-3.3,0-4.9,0.1l-0.2,0.2C502.6,271.5,502.6,272.2,502.6,272.7z M487.1,275.2c0,0.7,0,1.4,0,2.1
	c1.6,0,3.3,0,4.9-0.1c0.2,0,0.2-0.2,0.2-0.5c0-0.5,0-0.9,0-1.2c0-0.5-0.2-0.5-0.5-0.5c-1.2,0-2.6,0-3.8,0
	C487.8,275.2,487.3,275.2,487.1,275.2z M507.8,277.1c0-0.7,0-1.4,0-2.1c-1.2,0-2.6,0-3.8,0c-1.6,0-1.6,0-1.6,1.7l0,0.2l0.2,0.2
	C504.5,277.1,506.2,277.1,507.8,277.1z M494.9,277.3c1.9,0,3.5,0,5.4-0.1c0-0.7,0-1.4,0-2.1c-1.9,0-3.5,0-5.4,0.1
	C494.9,276.1,494.9,276.6,494.9,277.3z M525.1,340.2c0-0.7,0-1.4,0-2.1c-1.9,0-3.5,0-5.4,0.1c0,0.7,0,1.4,0,2.1
	C521.6,340.3,523.5,340.3,525.1,340.2z M540.9,338.2c-1.9,0-3.5,0-5.4,0.1c0,0.7,0,1.4,0,2.1c1.9,0,3.5,0,5.4-0.1
	C540.9,339.3,540.9,338.9,540.9,338.2z M520,342.9c0,0.7,0,1.4,0,2.1c1.9,0,3.5,0,5.4-0.1c0-0.7,0-1.4,0-2.1
	C523.5,342.9,521.9,342.9,520,342.9z M502.5,268.2c1.9,0,3.5,0,5.4-0.1c0-0.7,0-1.4,0-2.1c-1.9,0-3.5,0-5.4,0.1
	C502.5,266.8,502.5,267.5,502.5,268.2z M520.1,347.4c0,0.7,0,1.4,0,2.1c1.9,0,3.5,0,5.2-0.1c0-0.7,0-1.4,0-2.1
	C523.6,347.3,521.7,347.3,520.1,347.4z M527.7,340.2c1.9,0,3.5,0,5.4-0.1c0-0.7,0-1.4,0-2.1c-1.9,0-3.5,0-5.4,0.1
	C527.7,339,527.7,339.5,527.7,340.2z M532.9,342.7c-1.9,0-3.5,0-5.4,0.1c0,0.7,0,1.4,0,2.1c1.9,0,3.5,0,5.4-0.1
	C533,343.9,533,343.4,532.9,342.7z"/>
<g>
	<path d="M616.3,305.4c0.7-2.1,1.6-4,1.8-6.1c0.2-1.2-0.3-2.4-1.2-3.3c-0.7-0.7-1.4-0.9-2.1-0.7c-0.5,0-0.7-0.2-0.5-0.5
		c0.2-0.5,0.5-0.9,0.9-1.4c2.3-1.9,5.6-0.8,6.4,2c0.5,2.1,0.1,4-1.1,5.7c-0.7,1.2-1.4,2.1-2.1,3.3c-0.2,0.2-0.5,0.7-0.5,0.9
		c-0.7,1.2-1.1,2.4-0.2,3.8l0,0.2l0,0c-2.4,0-4.5,0.1-6.8,0.1c0.9-1.4,0.4-2.6-0.1-4c-0.3-1.2-0.7-2.1-1.2-3.5
		c-0.7,1.9-1.4,3.8-1.8,5.7c0,0.2,0,0.5,0,0.9c0,0.2,0.2,0.7,0.2,0.9c-2.4,0-4.5,0.1-6.8,0.1c0.7-1.7,0-3.1-0.3-4.5
		c-1-3-1.7-6.1-2.5-8.9c-0.2-0.9-1-2.1-1.5-3c2.4,0,4.7-0.1,7.3-0.1c-0.7,1.2-0.4,2.4,0,3.5c0.7,2.8,1.7,5.6,2.5,8.4c0,0,0,0,0.2,0
		c0-0.2,0.2-0.2,0.2-0.5c0.5-1.4,0.9-3.1,1.4-4.5c0-0.2,0-0.7,0-0.9c-0.2-0.9-0.7-1.6-1-2.6c-0.3-1.2-1-2.3-1.9-3.3
		c2.6,0,5.2-0.1,7.8-0.1l0,0.2c-0.5,0.9-0.4,1.9-0.2,2.8C614.1,299,615.1,302.1,616.3,305.4C616.1,305.4,616.3,305.4,616.3,305.4z"
		/>
	<path d="M561,293.6c0.1,4.2,0.1,8.7,0.2,13c0,0.9,0.5,1.9,1,2.8c0,0.2,0.2,0.5,0.2,0.7c-1.4,0-2.6,0-4,0.1c0.2-0.7,0.5-1.4,0.7-2.1
		c0.2-0.7,0.2-1.2,0.2-1.9c-0.1-4.7-0.1-9.7-0.2-14.4c0-1.2-0.3-2.1-1-3c0-0.2-0.2-0.5-0.2-0.7c0.2,0,0.5,0,0.5,0
		c1.9,0,3.8,0,5.7-0.1c0.2,0,0.5,0.2,0.5,0.2c0.7,2.1,2.2,3.7,3.8,5.4c1.4,1.2,2.6,2.6,3.8,4c0.5,0.7,1,1.4,1.4,2.1
		c0-0.2,0-0.5,0-0.7c0-2.6-0.1-4.9-0.1-7.5c0-1.2-0.5-2.1-1-3.3c0-0.2-0.2-0.2-0.2-0.5c1.4,0,2.8,0,4.2-0.1
		c-0.2,0.2-0.2,0.5-0.5,0.7c-0.7,1.2-0.9,2.6-0.9,4c0.1,5.7,0.1,11.1,0.2,16.7c0,0.2,0,0.5,0,0.7c-0.9,0-1.6,0-2.4,0
		c-0.2,0-0.2-0.2-0.5-0.5c-0.7-1.4-1.2-2.6-2.2-4c-1-1.9-2.6-3-4.1-4.7c-1.4-1.4-2.9-3-4.3-4.4C562.3,295.7,561.8,294.5,561,293.6z"
		/>
	<path d="M595.3,301.2c-3.5,0-6.8,0.1-10.4,0.1c0,1.9-0.2,3.8,0.8,5.4c0.7,1.6,3.1,2.1,4.7,1.1c1.6-1,2.1-2.9,1.1-4.3
		c0-0.2-0.2-0.2-0.2-0.5c0.9-0.5,1.6-0.5,2.4,0.2c1,0.7,1,1.4,1,2.6c-0.2,1.2-0.7,1.9-1.6,2.6c-1.4,1-2.8,1.4-4.5,1.5
		c-1.4,0-2.8,0-4.2-0.4c-3.3-0.9-5.5-3.7-5.7-7.2c-0.3-1.6,0-3.3,0.6-5c1.4-3.1,3.7-4.5,7-4.8c1.9-0.3,3.8,0.2,5.4,0.9
		c2.1,1.2,3.3,3,3.6,5.4C595.3,299.8,595.3,300.5,595.3,301.2z M589.2,299.8c0-1.2,0-2.4,0-3.5c0-0.5,0-0.7-0.3-1.2
		c-0.2-0.9-1-1.2-1.9-1.2c-0.7,0-1.4,0.7-1.6,1.7c-0.2,0.9-0.2,1.9-0.2,2.8c0,0.5,0,0.9,0,1.4C586.6,299.9,587.7,299.9,589.2,299.8z
		"/>
</g>
<g>
	<path d="M642.5,286.2c6.4-0.1,11.4,4.8,11.5,11.2c0.3,6.8-4.8,11.8-11.2,11.9c-6.4,0.1-11.4-4.8-11.5-11.2
		C631,291.3,635.9,286.3,642.5,286.2z M648.5,297.4c0-0.5,0-1.2-0.3-1.9c-0.5-2.3-1.9-3.7-4.3-4.2c-2.4-0.4-4.5,0.1-5.9,2.2
		c-1.2,1.9-1.4,4-0.9,6.1c1,4.2,6.2,6,9.5,2.9C647.8,301.4,648.3,299.5,648.5,297.4z"/>
	<path d="M684,308.5c-1.9,0-3.5,0-5.4,0.1c0-0.9,0-1.9,0-2.8c-0.2,0-0.2,0.2-0.2,0.2c-1.8,3.8-7.5,3.9-10.3,1.3
		c-1.7-1.6-2.4-3.5-2.7-5.6c-0.3-2.6-0.1-5.4,1.6-7.6c2.5-3.8,7.7-3.9,9.9-2c0.7,0.5,1.2,1.2,1.7,1.9c0-1.4,0-2.8-0.1-4.2
		c0-1.4,0-2.8-0.1-4.2c1.9,0,3.5,0,5.4-0.1C683.8,292.7,683.9,300.5,684,308.5z M670.7,299.7C670.7,299.7,670.9,299.7,670.7,299.7
		c0,0.2,0,0.5,0,0.7c0.3,1.6,1,2.8,2.4,3.3c1.7,0.4,3.3,0.2,4.2-1.2c0.9-1.2,1.1-2.8,0.9-4.3c-0.3-1.9-1.9-3-3.6-3
		c-1.9,0-3.3,1-3.7,2.9C670.9,298.8,670.9,299.3,670.7,299.7z"/>
	<path d="M656.8,285.3c1.9,0,3.5,0,5.4-0.1c0.1,7.8,0.2,15.5,0.3,23.6c-1.9,0-3.5,0-5.4,0.1C657,301.1,656.9,293.1,656.8,285.3z"/>
</g>
<g>
	<path d="M571.8,324.3c2.6,0,5.4-0.1,8-0.1l0,0.2c-0.7,1-0.7,2.1-0.7,3.3c0,2.1,0.1,4.5,0.1,6.6c0,0.7,0.5,1.4,0.7,2.1
		c0,0.2,0.2,0.5,0.5,0.7c-0.2,0-0.2,0-0.5,0c-3.5,0-6.8,0.1-10.4,0.1c-5.7,0.1-9.9-3.6-10.7-9.3c-0.3-2.4-0.3-4.5,0.6-6.6
		c1.6-3.8,4.4-5.7,8.2-6.2c1.6-0.3,3.5,0,5.2,0.2c1.2,0,2.4,0.2,3.8,0.4c0.7,0,1.6-0.3,2.3-0.5c0.5-0.2,0.7,0,0.7,0.5
		c0,0.2,0,0.5,0,0.7c-0.9,3.3-3.5,4.8-6.5,3.9c-0.2,0-0.5-0.2-0.7-0.5c-0.2-0.2-0.5-0.5-0.5-0.9c0.2-1.4-1.2-2.8-2.9-2.6
		c-1.2,0.3-1.9,0.7-2.6,1.7c-0.7,1.2-1.1,2.6-1.1,4.3c-0.2,2.8-0.2,5.9,0.6,8.7c1,3,2.9,4.4,5.9,4.6c0.2,0,0.5,0,0.7,0
		c0.2,0,0.5-0.2,0.5-0.7c0-3.1-0.1-5.9-0.1-8.9c0-0.2-0.2-0.7-0.2-0.9C572.5,325,572.3,324.8,571.8,324.3z"/>
	<path d="M668.8,319.1c1.9,0,3.8,0,5.7-0.1c0,0.2,0,0.2-0.2,0.5c-3.2,8-6.6,16.1-9.8,24.2c-0.2,0.5-0.5,0.5-0.9,0.5
		c-1.6,0-3.3,0-5.2,0.1c0-0.2,0.2-0.5,0.2-0.7c1.1-2.6,2.3-5,3.4-7.6c0.2-0.5,0.2-0.7,0-1.2c-2.2-4.9-4.6-10.1-6.8-15
		c0-0.2-0.2-0.2-0.2-0.7c0.7,0,1.2,0,1.9,0c0.7,0,1.4,0,2.1,0c0.7,0,1.4-0.3,1.9,0c0.5,0.2,0.5,1.2,0.7,1.6c1.2,2.8,2.2,5.6,3.4,8.4
		C666.3,325.9,667.4,322.6,668.8,319.1z"/>
	<path d="M592.5,335.8c-0.2,0.2-0.5,0.2-0.7,0.5c-2.1,1.4-4.2,1.7-6.6,0.8c-3.1-1.4-3.6-5.4-1.3-7.8c0.9-0.7,1.9-1.4,2.8-1.7
		c1.4-0.5,2.8-1,4.2-1.7c1.4-0.5,1.6-2.4,0.7-3.3c-0.5-0.5-1.7-0.7-2.1-0.2c-0.5,0.2-0.5,0.7-0.2,1.2c0.5,0.9,0.5,1.2-0.7,1.7
		c-2.3,1-3.8,0.3-5-1.8c-0.5-0.9-0.7-1.9-0.7-2.8c0,0,0,0,0.2,0c2.1,0.9,4,0.4,6.1,0.2c1.9-0.3,3.5-0.3,5.4,0.2
		c1.7,0.4,2.6,1.4,2.9,3c0.2,0.9,0.3,2.1,0.3,3.1c0,2.1,0.1,4.2,0.1,6.4c0,1.2,0.3,2.1,0.5,3.1c0,0.2,0,0.5,0.2,0.7
		c-0.7,0-1.4,0-2.4,0c-0.9,0-2.1,0-3.1,0c-0.5,0-0.7-0.2-1-0.7C592.7,336.3,592.7,336.1,592.5,335.8z M592.3,327.4
		c-0.2,0-0.5,0.2-0.7,0.2c-1.6,1-2.6,2.4-3,4.3c-0.2,0.9,0,1.6,0.5,2.6c0.5,0.7,1.2,0.9,1.9,0.7c0.7-0.2,1.6-1.2,1.6-1.9
		c0-1.2,0-2.6,0-3.8C592.4,328.8,592.4,328.1,592.3,327.4z"/>
	<path d="M638.3,328.2c-3.5,0-6.8,0.1-10.4,0.1c0,1.9-0.2,4,0.8,5.6c0.7,1.4,3.1,1.8,4.7,1.1c1.4-0.7,2.1-2.6,1.1-4.3
		c0-0.2-0.2-0.2-0.2-0.5c1.2-1,3.1,0,3.3,1.4c0.3,1.4-0.2,2.6-1.1,3.5c-1.2,1.2-2.8,1.7-4.5,1.9c-1.9,0.3-3.5,0-5.2-0.6
		c-3.1-1.1-5-3.5-5.3-6.8c-0.3-1.2,0-2.6,0.2-3.8c0.4-2.6,2.1-4.5,4.6-5.5c2.1-0.7,4.2-1,6.6-0.3c3.8,1.4,5,3.5,5.3,6.8
		C638.3,327.2,638.3,327.7,638.3,328.2z M632.1,326.6c0-0.7,0-1.2,0-1.9c0-0.7,0-1.6-0.3-2.4c-0.2-0.7-0.7-1.2-1.4-1.4
		c-0.9,0-1.9,0.5-2.1,1.4c-0.2,1.2-0.2,2.6-0.4,3.8c0,0.2,0,0.2,0,0.5C629.6,326.6,630.7,326.6,632.1,326.6z"/>
	<path d="M612.7,313.4c1.9,0,3.5,0,5.4-0.1c0.1,7.8,0.2,15.5,0.3,23.6c-1.9,0-3.5,0-5.4,0.1C612.9,329,612.8,321.2,612.7,313.4z"/>
	<path d="M647.1,336.3c-2.4,0-4.7,0.1-7.1,0.1c0.9-1,0.9-1.9,0.9-3.1c0-3.5-0.1-6.8-0.1-10.4c0-0.9-0.3-1.9-0.7-2.8
		c0-0.2-0.2-0.5-0.2-0.7c2.1,0,4-0.1,6.1-0.1c0,0.5,0,0.9,0,1.4c0.2-0.2,0.5-0.5,0.7-0.5c1.2-1,2.8-1.4,4.2-1c1.9,0.7,2.9,2.1,3.1,4
		c0.2,0.9,0.3,1.9-0.2,2.6c0,0.2-0.5,0.5-0.5,0.5c-1.6,0-3.1,0-4.7,0.1c0,0-0.2,0,0,0c0.2-0.9,0.2-1.9,0.4-2.6c0-0.5,0-0.7-0.3-1.2
		c-0.5-0.9-1.7-1.2-2.4-0.2c-0.5,0.5-0.5,1.2-0.4,1.9c0,1.2,0,2.4,0,3.3c0,1.6,0,3.1,0.1,4.7S646.1,335.1,647.1,336.3z"/>
	<path d="M602.1,313.6c1.9,0,3.5,0,5.4-0.1c0.1,7.8,0.2,15.5,0.3,23.6c-1.9,0-3.5,0-5.4,0.1C602.3,329.1,602.2,321.3,602.1,313.6z"
		/>
</g>
<g>
	<path d="M572.7,283.3c-1.2,0-2.1,0-3.1,0c-0.1-4.5-0.1-9.2-0.2-13.7c0.9,0,2.1,0,3.1,0c0,1.6,0,3.3,0.1,5.2
		c0.9-1.4,2.1-1.9,3.5-1.9c2.1,0.2,3.6,1.4,3.6,3.5c0,2.4,0.1,4.5,0.1,6.8c-0.9,0-2.1,0-3.1,0c0-0.7,0-1.4,0-2.1c0-1.2,0-2.4,0-3.5
		s-0.7-2.1-1.9-2.1s-2.1,0.7-2.1,2.1c0,1.6,0,3.5,0.1,5.2C572.7,282.9,572.7,283.1,572.7,283.3z"/>
	<path d="M591.5,279.6c-0.2,1.2-0.7,1.9-1.6,2.6c-2.3,1.9-7.3,1.7-8.5-2.5c-0.5-2.1-0.3-4,1.3-5.7c1.6-1.7,3.7-1.7,5.9-1
		c1.9,0.7,2.9,2.3,3.1,4.4c0,0.2,0,0.2,0,0.5c0,0.2,0,0.5,0,0.7c-2.4,0-4.7,0.1-7.1,0.1c-0.2,0.9,0.3,1.9,1.2,2.1
		c0.9,0.5,1.9,0,2.6-1.2C589.4,279.6,590.3,279.6,591.5,279.6z M584.4,277.3c1.4,0,2.6,0,4-0.1c0-1.2-0.7-1.9-1.9-1.9
		C585.3,275.2,584.6,275.9,584.4,277.3z"/>
	<path d="M567.8,270.4c0,0.9,0,1.6,0,2.6c-1.2,0-2.4,0-3.5,0c0,3.5,0.1,7.1,0.1,10.6c-1.2,0-2.1,0-3.3,0c0-3.5-0.1-7.1-0.1-10.6
		c-1.2,0-2.4,0-3.5,0c0-0.9,0-1.6,0-2.6C561,270.5,564.5,270.5,567.8,270.4z"/>
</g>
</svg>
