<?xml version="1.0" encoding="utf-8"?>
<!-- Generator: Adobe Illustrator 21.0.2, SVG Export Plug-In . SVG Version: 6.00 Build 0)  -->
<svg version="1.1" id="Capa_1" xmlns="http://www.w3.org/2000/svg" xmlns:xlink="http://www.w3.org/1999/xlink" x="0px" y="0px"
	 viewBox="0 0 190.3 342" style="enable-background:new 0 0 190.3 342;" xml:space="preserve">
<g>
	<g>
		<path d="M167.8,339.7H23c-10.1,0-18.4-8.2-18.4-18.4V21.1C4.6,11,12.8,2.7,23,2.7h144.8c10.1,0,18.4,8.2,18.4,18.4v300.3
			C186.2,331.5,177.9,339.7,167.8,339.7z M23,4.6C13.9,4.6,6.5,12,6.5,21.1v300.3c0,9.1,7.4,16.5,16.5,16.5h144.8
			c9.1,0,16.5-7.4,16.5-16.5V21.1c0-9.1-7.4-16.5-16.5-16.5H23z"/>
	</g>
	<g>
		<path d="M174.6,304.1H16.2V40.6h158.3V304.1z M18.1,302.3h154.6V42.5H18.1V302.3z"/>
	</g>
	<g>
		<path d="M132,28.1H62.6c-2,0-3.7-1.7-3.7-3.7c0-2,1.7-3.7,3.7-3.7H132c2,0,3.7,1.7,3.7,3.7C135.7,26.4,134,28.1,132,28.1z
			 M62.6,22.5c-1,0-1.9,0.8-1.9,1.9s0.8,1.9,1.9,1.9H132c1,0,1.9-0.8,1.9-1.9s-0.8-1.9-1.9-1.9H62.6z"/>
	</g>
	<g>
		<path d="M97.1,332.6c-6.1,0-11-4.9-11-11s4.9-11,11-11s11,4.9,11,11S103.2,332.6,97.1,332.6z M97.1,312.5c-5,0-9.1,4.1-9.1,9.1
			s4.1,9.1,9.1,9.1c5,0,9.1-4.1,9.1-9.1S102.1,312.5,97.1,312.5z"/>
	</g>
</g>
</svg>
