<?xml version="1.0" encoding="utf-8"?>
<!-- Generator: Adobe Illustrator 21.0.2, SVG Export Plug-In . SVG Version: 6.00 Build 0)  -->
<svg version="1.1" xmlns="http://www.w3.org/2000/svg" xmlns:xlink="http://www.w3.org/1999/xlink" x="0px" y="0px"
	 viewBox="0 0 562 704" style="enable-background:new 0 0 562 704;" xml:space="preserve">
<style type="text/css">
	.st0{fill:#FFFFFF;}
	.st1{fill:none;stroke:#000000;stroke-miterlimit:10;}
	.st2{display:none;}
	.st3{display:inline;}
	.st4{clip-path:url(#SVGID_2_);}
	.st5{clip-path:url(#SVGID_4_);}
	.st6{font-family:'Poppins-Black';}
	.st7{font-size:29.0874px;}
	
		.st8{clip-path:url(#SVGID_6_);fill:none;stroke:#000000;stroke-width:6;stroke-linecap:round;stroke-linejoin:round;stroke-miterlimit:10;}
	
		.st9{clip-path:url(#SVGID_2_);fill:none;stroke:#000000;stroke-width:6;stroke-linecap:round;stroke-linejoin:round;stroke-miterlimit:10;}
	
		.st10{clip-path:url(#SVGID_8_);fill:none;stroke:#000000;stroke-width:6;stroke-linecap:round;stroke-linejoin:round;stroke-miterlimit:10;}
	.st11{fill:#FCFCFC;}
	.st12{clip-path:url(#SVGID_10_);}
	.st13{clip-path:url(#SVGID_12_);}
	
		.st14{clip-path:url(#SVGID_14_);fill:none;stroke:#000000;stroke-width:6;stroke-linecap:round;stroke-linejoin:round;stroke-miterlimit:10;}
	
		.st15{clip-path:url(#SVGID_10_);fill:none;stroke:#000000;stroke-width:6;stroke-linecap:round;stroke-linejoin:round;stroke-miterlimit:10;}
	
		.st16{clip-path:url(#SVGID_16_);fill:none;stroke:#000000;stroke-width:6;stroke-linecap:round;stroke-linejoin:round;stroke-miterlimit:10;}
	.st17{clip-path:url(#SVGID_18_);}
	.st18{clip-path:url(#SVGID_20_);}
	.st19{font-size:25.2681px;}
	
		.st20{clip-path:url(#SVGID_22_);fill:none;stroke:#000000;stroke-width:6;stroke-linecap:round;stroke-linejoin:round;stroke-miterlimit:10;}
	
		.st21{clip-path:url(#SVGID_18_);fill:none;stroke:#000000;stroke-width:6;stroke-linecap:round;stroke-linejoin:round;stroke-miterlimit:10;}
	
		.st22{clip-path:url(#SVGID_24_);fill:none;stroke:#000000;stroke-width:6;stroke-linecap:round;stroke-linejoin:round;stroke-miterlimit:10;}
</style>
<g id="Paso3-click">
	<g>
		<g>
			<g>
				<path d="M386.6,589.3H180.3c-18.1,0-32.9-14.7-32.9-32.9V205.8c0-18.1,14.7-32.9,32.9-32.9h206.3c18.1,0,32.9,14.7,32.9,32.9
					v350.6C419.4,574.6,404.7,589.3,386.6,589.3z M180.3,176.3c-16.3,0-29.5,13.3-29.5,29.5v350.6c0,16.3,13.3,29.5,29.5,29.5h206.3
					c16.3,0,29.5-13.3,29.5-29.5V205.8c0-16.3-13.3-29.5-29.5-29.5H180.3z"/>
			</g>
			<g>
				<path d="M457.4,519.1H251.1c-18.1,0-32.9-14.7-32.9-32.9V135.6c0-18.1,14.7-32.9,32.9-32.9h206.3c18.1,0,32.9,14.7,32.9,32.9
					v350.6C490.2,504.3,475.5,519.1,457.4,519.1z M251.1,106.1c-16.3,0-29.5,13.3-29.5,29.5v350.6c0,16.3,13.3,29.5,29.5,29.5h206.3
					c16.3,0,29.5-13.3,29.5-29.5V135.6c0-16.3-13.3-29.5-29.5-29.5H251.1z"/>
			</g>
			<g>
				<path d="M524.7,451.8H318.4c-18.1,0-32.9-14.7-32.9-32.9V68.3c0-18.1,14.7-32.9,32.9-32.9h206.3c18.1,0,32.9,14.7,32.9,32.9
					v350.6C557.5,437,542.8,451.8,524.7,451.8z M318.4,38.7c-16.3,0-29.5,13.3-29.5,29.5v350.6c0,16.3,13.3,29.5,29.5,29.5h206.3
					c16.3,0,29.5-13.3,29.5-29.5V68.3c0-16.3-13.3-29.5-29.5-29.5H318.4z"/>
			</g>
		</g>
		<g>
			<g>
				<g id="XMLID_61_">
					<g>
						<path class="st0" d="M260.1,244.9v428.4c0,13.8-11.1,24.9-24.9,24.9H28.6c-13.7,0-24.9-11.1-24.9-24.9V244.9
							c0-13.8,11.1-24.9,24.9-24.9h206.6C248.9,220,260.1,231.2,260.1,244.9z M243.5,647.4V274.2H20.3v373.3H243.5z M188.1,249.6
							c0-2.2-1.8-4-4-4h-99c-2.2,0-4,1.8-4,4c0,2.2,1.8,4,4,4h99C186.3,253.6,188.1,251.8,188.1,249.6z M148.7,673.7
							c0-7.9-6.4-14.4-14.3-14.4c-7.9,0-14.4,6.4-14.4,14.4c0,7.9,6.4,14.3,14.4,14.3C142.3,688,148.7,681.6,148.7,673.7z"/>
						<rect x="20.3" y="274.2" class="st0" width="223.3" height="373.3"/>
					</g>
					<g>
						<path class="st1" d="M235.2,698.2H28.6c-13.7,0-24.9-11.1-24.9-24.9V244.9c0-13.8,11.1-24.9,24.9-24.9h206.6
							c13.7,0,24.9,11.1,24.9,24.9v428.4C260.1,687.1,248.9,698.2,235.2,698.2z"/>
						<rect x="20.3" y="274.2" class="st1" width="223.3" height="373.3"/>
						<path class="st1" d="M184.1,253.6h-99c-2.2,0-4-1.8-4-4c0-2.2,1.8-4,4-4h99c2.2,0,4,1.8,4,4
							C188.1,251.8,186.3,253.6,184.1,253.6z"/>
						<path class="st1" d="M148.7,673.7c0,7.9-6.4,14.3-14.3,14.3c-7.9,0-14.4-6.4-14.4-14.3c0-7.9,6.4-14.4,14.4-14.4
							C142.3,659.3,148.7,665.8,148.7,673.7z"/>
					</g>
				</g>
			</g>
			<g>
				<path d="M148.8,431.9c-0.7,0-1.3-0.5-1.4-1.2c-4.4-33.4-7.5-36.4-41-40.2c-0.7-0.1-1.2-0.7-1.2-1.4c0-0.7,0.5-1.3,1.2-1.4
					c33.5-4.5,36.5-7.6,40.4-41.1c0.1-0.7,0.7-1.2,1.4-1.2c0,0,0,0,0,0c0.7,0,1.3,0.5,1.4,1.2c4.4,33.4,7.5,36.4,41,40.2
					c0.7,0.1,1.2,0.7,1.2,1.4s-0.5,1.3-1.2,1.4c-33.5,4.5-36.5,7.6-40.4,41.1C150.1,431.4,149.5,431.9,148.8,431.9
					C148.8,431.9,148.8,431.9,148.8,431.9z M116.7,389c22.6,3.4,28.2,8.8,32,31.3c3.5-22.6,8.9-28.1,31.5-32
					c-22.6-3.4-28.2-8.8-32-31.3C144.8,379.6,139.3,385.1,116.7,389z"/>
			</g>
			<g>
				<g>
					<path class="st0" d="M180.9,373.1c-2.3-17-4-18.7-21.1-20.7c17-2.3,18.7-4,20.7-21.1c2.3,17,4,18.7,21.1,20.7
						C184.5,354.3,182.8,356,180.9,373.1z"/>
				</g>
				<g>
					<path d="M180.9,374.3c-0.6,0-1.1-0.5-1.2-1.1c-2.2-16.5-3.5-17.7-20-19.6c-0.6-0.1-1.1-0.6-1.1-1.2c0-0.6,0.5-1.2,1.1-1.2
						c16.5-2.2,17.7-3.5,19.6-20c0.1-0.6,0.6-1.1,1.2-1.1c0,0,0,0,0,0c0.6,0,1.1,0.5,1.2,1.1c2.2,16.5,3.5,17.7,20,19.6
						c0.6,0.1,1.1,0.6,1.1,1.2c0,0.6-0.5,1.2-1.1,1.2c-16.5,2.2-17.7,3.5-19.6,20C182,373.8,181.5,374.3,180.9,374.3
						C180.9,374.3,180.9,374.3,180.9,374.3z M167.8,352.3c8.3,1.7,11.2,4.5,13,12.7c1.7-8.3,4.5-11.2,12.7-13
						c-8.3-1.7-11.2-4.5-13-12.7C178.9,347.6,176,350.5,167.8,352.3z"/>
				</g>
			</g>
		</g>
		<g>
			<path d="M191,143.7c-0.8,0-1.5-0.6-1.6-1.4c-5.9-32.4-8.6-34.8-41.5-37c-0.8-0.1-1.5-0.7-1.5-1.6c0-0.8,0.5-1.6,1.4-1.7
				c32.4-5.9,34.8-8.6,37-41.5c0.1-0.8,0.7-1.5,1.6-1.5c0.8,0,1.6,0.5,1.7,1.4c5.9,32.4,8.6,34.8,41.5,37c0.8,0.1,1.5,0.7,1.5,1.6
				c0,0.8-0.5,1.6-1.4,1.7c-32.4,5.9-34.8,8.6-37,41.5C192.6,143,192,143.6,191,143.7C191.1,143.7,191.1,143.7,191,143.7z
				 M159.7,103c20.3,2.3,26.1,7.4,30.7,27.3c2.3-20.3,7.4-26.1,27.4-30.7c-20.3-2.3-26.1-7.4-30.7-27.4
				C184.7,92.6,179.6,98.3,159.7,103z"/>
		</g>
		<g>
			<path d="M356.9,64.4c-0.7,0-1.3-0.5-1.4-1.2c-2.3-18.8-3.8-20.2-22.6-22.6c-0.7-0.1-1.2-0.7-1.2-1.4c0-0.7,0.5-1.3,1.2-1.4
				c18.8-2.3,20.2-3.8,22.6-22.6c0.1-0.7,0.7-1.2,1.4-1.2s1.3,0.5,1.4,1.2c2.3,18.8,3.8,20.2,22.6,22.6c0.7,0.1,1.2,0.7,1.2,1.4
				c0,0.7-0.5,1.3-1.2,1.4c-18.8,2.3-20.2,3.8-22.6,22.6C358.2,63.8,357.6,64.4,356.9,64.4z M342.2,39.2c9.4,2,12.7,5.3,14.6,14.7
				c2-9.4,5.3-12.7,14.6-14.7c-9.4-2-12.7-5.3-14.6-14.7C354.9,33.9,351.6,37.2,342.2,39.2z"/>
		</g>
		<g>
			<g>
				<path class="st0" d="M341.3,233.4c-95.1-18.1-95.1-18.1-113.2,77c18.1-95.1,18.1-95.1-77-113.2c95.1,18.1,95.1,18.1,113.2-77
					C246.2,215.3,246.2,215.3,341.3,233.4z"/>
			</g>
			<g>
				<path d="M229.7,310.7l-3.3-0.6c0,0,0,0,0,0c8.9-47,13.4-70.6,4.2-84.2c-9.2-13.6-32.8-18.1-79.9-27c0,0,0,0,0,0l0.6-3.3
					c0,0,0.1,0,0.1,0c0,0,0.1,0,0.1,0c46.9,8.9,70.5,13.4,84,4.1c13.6-9.2,18.1-32.8,27-79.6c0,0,0,0,0,0c0-0.1,0-0.1,0-0.2
					c0,0,0,0,0-0.1l3.3,0.6c-8.9,47-13.4,70.7-4.2,84.2c9.2,13.6,32.8,18.1,79.9,27c0,0,0,0,0,0L341,235c-0.1,0-0.2,0-0.2,0
					c0,0,0,0,0,0c-46.8-8.9-70.4-13.3-83.9-4.1c-13.6,9.2-18.1,32.8-27,79.7l0,0C229.8,310.6,229.7,310.7,229.7,310.7z M206.9,207.8
					c13.1,4.1,21.5,8.9,26.5,16.2c5,7.3,6.3,16.9,5.4,30.6c8.3-26.2,19.3-33.7,46.7-31.8c-13.1-4.1-21.5-8.9-26.5-16.2
					c-5-7.3-6.3-16.9-5.4-30.6C245.3,202.2,234.3,209.7,206.9,207.8z"/>
			</g>
		</g>
		<g>
			<path d="M117.7,130.9c1.2,2.9,1.3,6.1,0.2,9.4l-5.7-3.1c0.6-1.8,0.5-3.5-0.2-5c-0.7-1.6-2-2.8-3.8-3.8c-2.1-1.1-4.2-1.3-6.3-0.6
				c-2.2,0.7-4,2.5-5.5,5.3c-1.5,2.8-2,5.3-1.4,7.5c0.6,2.2,1.9,3.9,3.9,5c1.8,1,3.6,1.3,5.3,1c1.7-0.3,3.1-1.2,4.3-2.6l5.6,3.1
				c-2.2,2.7-4.8,4.4-7.9,5c-3.1,0.6-6.4,0-9.7-1.8c-2.5-1.3-4.4-3.1-5.8-5.2c-1.3-2.1-2-4.4-2-7c0-2.6,0.7-5.2,2.2-7.9
				c1.4-2.7,3.3-4.7,5.4-6.1c2.2-1.4,4.5-2.1,7-2.1c2.5,0,5,0.6,7.5,2C114.2,125.6,116.5,127.9,117.7,130.9z"/>
			<path d="M137.8,126.3L121.4,162l-5.5-2.5l16.4-35.7L137.8,126.3z"/>
			<path d="M145.8,140.6l-11.2,27l-5.6-2.3l11.2-27L145.8,140.6z M144.6,128.1c0.9-0.4,1.9-0.3,3,0.1c1.1,0.4,1.8,1.1,2.2,2
				c0.4,0.9,0.4,1.8,0,2.8c-0.4,0.9-1,1.6-2,1.9c-0.9,0.3-1.9,0.2-3-0.2c-1.1-0.4-1.8-1.1-2.2-2c-0.4-0.9-0.4-1.8,0-2.7
				C143,129.1,143.7,128.5,144.6,128.1z"/>
			<path d="M172.5,152.9c1.7,2.7,2.3,5.8,1.8,9.2l-6.1-2.1c0.3-1.9-0.1-3.5-1.1-4.9c-1-1.4-2.4-2.5-4.3-3.1
				c-2.2-0.7-4.3-0.6-6.3,0.5c-2,1.1-3.5,3.1-4.5,6.1c-1,3-1.1,5.6-0.1,7.6c0.9,2.1,2.5,3.5,4.7,4.2c1.9,0.7,3.7,0.7,5.4,0.1
				c1.6-0.6,2.9-1.7,3.8-3.3l6.1,2.1c-1.7,3.1-4,5.1-7,6.3c-3,1.1-6.3,1.1-9.9-0.1c-2.7-0.9-4.9-2.3-6.5-4.1c-1.7-1.8-2.7-4-3.2-6.6
				c-0.4-2.5-0.2-5.3,0.8-8.2c1-2.9,2.4-5.2,4.3-6.9c1.9-1.7,4.1-2.8,6.5-3.3c2.4-0.4,5-0.2,7.7,0.7
				C168.1,148.3,170.8,150.3,172.5,152.9z"/>
			<path d="M192.1,185.6l-7.1-15.1l-3.1,12.6l-5.9-1.4l9.3-38.1l5.9,1.4l-5.3,21.9l13.1-9.6l7.1,1.7L190.2,170l9.2,17.4L192.1,185.6
				z"/>
			<path d="M214.4,183.2l-1.2,6.6l-6.8-1.2l1.2-6.6L214.4,183.2z M219.8,151.7l-5.5,26.3l-5-0.9l3.9-26.6L219.8,151.7z"/>
		</g>
	</g>
</g>
<g id="Paso2" class="st2">
	<g class="st3">
		<g>
			<path d="M222.9,606.1H-56.3c-0.2,0-0.3-0.1-0.4-0.2L-73,584.3c-0.1-0.1-0.1-0.2-0.1-0.3l0-409.4c0-0.1,0.1-0.3,0.1-0.4
				s0.2-0.1,0.4-0.1h295.5c0.3,0,0.5,0.2,0.5,0.5v431C223.4,605.8,223.1,606.1,222.9,606.1z M-56.1,605.1h278.4v-430H-72.1l0,408.8
				L-56.1,605.1z"/>
		</g>
		<g>
			<path d="M-56.3,606.1c-0.1,0-0.3-0.1-0.4-0.2l-0.1-0.1L-73,584.3c-0.1-0.2-0.1-0.4,0-0.6s0.3-0.3,0.5-0.2l21.2,2.8
				c0.1,0,0.3,0.1,0.3,0.2c0.1,0.1,0.1,0.3,0.1,0.4l-4.8,18.8c0,0.2-0.2,0.4-0.3,0.4C-56.1,606.1-56.2,606.1-56.3,606.1z
				 M-71.5,584.7l15,19.8l4.4-17.3L-71.5,584.7z"/>
		</g>
		<g>
			<g>
				<defs>
					
						<rect id="SVGID_1_" x="-30.4" y="343.2" transform="matrix(1 -1.073697e-03 1.073697e-03 1 -0.4184 7.814676e-02)" width="205.9" height="93"/>
				</defs>
				<clipPath id="SVGID_2_">
					<use xlink:href="#SVGID_1_"  style="overflow:visible;"/>
				</clipPath>
				<g class="st4">
					<defs>
						
							<rect id="SVGID_3_" x="-30.4" y="343.2" transform="matrix(1 -1.073697e-03 1.073697e-03 1 -0.4184 7.814676e-02)" width="205.9" height="93"/>
					</defs>
					<clipPath id="SVGID_4_">
						<use xlink:href="#SVGID_3_"  style="overflow:visible;"/>
					</clipPath>
					<g class="st5">
						<text transform="matrix(1 -1.073697e-03 1.073697e-03 1 48.5146 366.8383)" class="st6 st7">The</text>
					</g>
				</g>
				<g class="st4">
					<text transform="matrix(1 -1.073697e-03 1.073697e-03 1 48.5415 391.9594)" class="st6 st7">New Old</text>
				</g>
				<g class="st4">
					<text transform="matrix(1 -1.073697e-03 1.073697e-03 1 48.5685 417.0912)" class="st6 st7">Galle</text>
				</g>
				<g class="st4">
					<text transform="matrix(1 -1.073697e-03 1.073697e-03 1 126.8717 417.0071)" class="st6 st7">r</text>
				</g>
				<g class="st4">
					<text transform="matrix(1 -1.073697e-03 1.073697e-03 1 142.3464 416.9905)" class="st6 st7">y</text>
				</g>
				<g class="st4">
					<defs>
						
							<rect id="SVGID_5_" x="-30.4" y="343.2" transform="matrix(1 -1.073697e-03 1.073697e-03 1 -0.4184 7.814676e-02)" width="205.9" height="93"/>
					</defs>
					<clipPath id="SVGID_6_">
						<use xlink:href="#SVGID_5_"  style="overflow:visible;"/>
					</clipPath>
					
						<rect x="-24.2" y="362.8" transform="matrix(1 -1.073697e-03 1.073697e-03 1 -0.4273 -6.143826e-03)" class="st8" width="36.5" height="70.4"/>
				</g>
				
					<rect x="-17.1" y="358.7" transform="matrix(1 -1.073697e-03 1.073697e-03 1 -0.4229 1.485046e-03)" class="st9" width="36.5" height="70.4"/>
				
					<rect x="-10" y="354.6" transform="matrix(1 -1.073697e-03 1.073697e-03 1 -0.4185 9.113920e-03)" class="st9" width="36.5" height="70.4"/>
				
					<rect x="-2.9" y="350.5" transform="matrix(1 -1.073697e-03 1.073697e-03 1 -0.414 1.674256e-02)" class="st9" width="36.5" height="70.4"/>
				<g class="st4">
					<defs>
						
							<rect id="SVGID_7_" x="-30.4" y="343.2" transform="matrix(1 -1.073697e-03 1.073697e-03 1 -0.4184 7.814676e-02)" width="205.9" height="93"/>
					</defs>
					<clipPath id="SVGID_8_">
						<use xlink:href="#SVGID_7_"  style="overflow:visible;"/>
					</clipPath>
					
						<rect x="4.3" y="346.3" transform="matrix(1 -1.073697e-03 1.073697e-03 1 -0.4096 2.437167e-02)" class="st10" width="36.5" height="70.4"/>
				</g>
			</g>
		</g>
	</g>
	<g class="st3">
		<g>
			<polygon class="st11" points="378.6,436.6 378.6,256.6 616.1,256.6 630,265.6 630,436.6 			"/>
			<path d="M630,437.1H378.6c-0.3,0-0.5-0.2-0.5-0.5V256.6c0-0.3,0.2-0.5,0.5-0.5h237.5c0.1,0,0.2,0,0.3,0.1l13.9,9
				c0.1,0.1,0.2,0.2,0.2,0.4l0,171.1c0,0.1-0.1,0.3-0.1,0.4S630.1,437.1,630,437.1z M379.1,436.1h250.4l0-170.3l-13.5-8.8H379.1
				V436.1z"/>
		</g>
		<g>
			<polygon class="st11" points="611.9,264.4 616.1,256.6 616.1,256.5 616.1,256.6 630,265.6 			"/>
			<path d="M630,266.1C630,266.1,629.9,266.1,630,266.1l-18-1.2c-0.2,0-0.3-0.1-0.4-0.3s-0.1-0.3,0-0.5l4.1-7.8
				c0-0.1,0.1-0.2,0.2-0.3c0.2-0.1,0.4-0.1,0.5,0l13.9,9c0.2,0.1,0.3,0.4,0.2,0.6C630.4,265.9,630.2,266.1,630,266.1z M612.7,264
				l15.3,1l-11.8-7.7L612.7,264z"/>
		</g>
	</g>
	<g class="st3">
		<g>
			<polygon class="st11" points="277.8,100.5 312.6,530 34.4,552.6 16.4,532.4 -16.7,124.3 			"/>
			<path d="M34.4,553.1c-0.1,0-0.3-0.1-0.4-0.2l-18-20.2c-0.1-0.1-0.1-0.2-0.1-0.3l-33.1-408.1c0-0.1,0-0.3,0.1-0.4s0.2-0.2,0.3-0.2
				L277.8,100c0.3,0,0.5,0.2,0.5,0.5L313.1,530c0,0.1,0,0.3-0.1,0.4c-0.1,0.1-0.2,0.2-0.3,0.2L34.4,553.1
				C34.4,553.1,34.4,553.1,34.4,553.1z M16.9,532.2L34.6,552l277.5-22.5L277.4,101l-293.5,23.8L16.9,532.2z"/>
		</g>
		<g>
			<polygon class="st11" points="37.7,533.4 34.4,552.6 34.4,552.6 34.4,552.6 16.4,532.4 			"/>
			<path d="M34.4,553.1c-0.1,0-0.2,0-0.3-0.1l-18-20.2c-0.1-0.2-0.2-0.4-0.1-0.5s0.3-0.3,0.5-0.3l21.3,1c0.1,0,0.3,0.1,0.4,0.2
				c0.1,0.1,0.1,0.3,0.1,0.4l-3.3,19.1c0,0.2-0.1,0.4-0.3,0.4C34.5,553.1,34.5,553.1,34.4,553.1z M17.6,533l16.5,18.6l3-17.6
				L17.6,533z"/>
		</g>
		<g>
			<g>
				<defs>
					
						<rect id="SVGID_9_" x="42.5" y="280.5" transform="matrix(0.9967 -8.176825e-02 8.176825e-02 0.9967 -26.2504 12.9834)" width="205.9" height="93"/>
				</defs>
				<clipPath id="SVGID_10_">
					<use xlink:href="#SVGID_9_"  style="overflow:visible;"/>
				</clipPath>
				<g class="st12">
					<defs>
						
							<rect id="SVGID_11_" x="42.5" y="280.5" transform="matrix(0.9967 -8.176825e-02 8.176825e-02 0.9967 -26.2504 12.9834)" width="205.9" height="93"/>
					</defs>
					<clipPath id="SVGID_12_">
						<use xlink:href="#SVGID_11_"  style="overflow:visible;"/>
					</clipPath>
					<g class="st13">
						<text transform="matrix(0.9967 -8.176824e-02 8.176824e-02 0.9967 119.5619 306.146)" class="st6 st7">The</text>
					</g>
				</g>
				<g class="st12">
					<text transform="matrix(0.9967 -8.176824e-02 8.176824e-02 0.9967 121.616 331.183)" class="st6 st7">New Old</text>
				</g>
				<g class="st12">
					<text transform="matrix(0.9967 -8.176824e-02 8.176824e-02 0.9967 123.671 356.2306)" class="st6 st7">Galle</text>
				</g>
				<g class="st12">
					<text transform="matrix(0.9967 -8.176824e-02 8.176824e-02 0.9967 201.7125 349.8279)" class="st6 st7">r</text>
				</g>
				<g class="st12">
					<text transform="matrix(0.9967 -8.176824e-02 8.176824e-02 0.9967 217.1353 348.5625)" class="st6 st7">y</text>
				</g>
				<g class="st12">
					<defs>
						
							<rect id="SVGID_13_" x="42.5" y="280.5" transform="matrix(0.9967 -8.176825e-02 8.176825e-02 0.9967 -26.2504 12.9834)" width="205.9" height="93"/>
					</defs>
					<clipPath id="SVGID_14_">
						<use xlink:href="#SVGID_13_"  style="overflow:visible;"/>
					</clipPath>
					
						<rect x="49.6" y="306.4" transform="matrix(0.9967 -8.176825e-02 8.176825e-02 0.9967 -27.7037 6.6883)" class="st14" width="36.5" height="70.4"/>
				</g>
				
					<rect x="56.3" y="301.7" transform="matrix(0.9967 -8.176825e-02 8.176825e-02 0.9967 -27.2986 7.2248)" class="st15" width="36.5" height="70.4"/>
				
					<rect x="63.1" y="297.1" transform="matrix(0.9967 -8.176825e-02 8.176825e-02 0.9967 -26.8936 7.7612)" class="st15" width="36.5" height="70.4"/>
				
					<rect x="69.8" y="292.4" transform="matrix(0.9967 -8.176825e-02 8.176825e-02 0.9967 -26.4885 8.2976)" class="st15" width="36.5" height="70.4"/>
				<g class="st12">
					<defs>
						
							<rect id="SVGID_15_" x="42.5" y="280.5" transform="matrix(0.9967 -8.176825e-02 8.176825e-02 0.9967 -26.2504 12.9834)" width="205.9" height="93"/>
					</defs>
					<clipPath id="SVGID_16_">
						<use xlink:href="#SVGID_15_"  style="overflow:visible;"/>
					</clipPath>
					
						<rect x="76.6" y="287.7" transform="matrix(0.9967 -8.176825e-02 8.176825e-02 0.9967 -26.0835 8.8341)" class="st16" width="36.5" height="70.4"/>
				</g>
			</g>
		</g>
		<g>
			<g>
				<defs>
					
						<rect id="SVGID_17_" x="463" y="253.5" transform="matrix(0.1927 -0.9813 0.9813 0.1927 69.9483 770.8124)" width="80.8" height="178.8"/>
				</defs>
				<clipPath id="SVGID_18_">
					<use xlink:href="#SVGID_17_"  style="overflow:visible;"/>
				</clipPath>
				<g class="st17">
					<defs>
						
							<rect id="SVGID_19_" x="463" y="253.5" transform="matrix(0.1927 -0.9813 0.9813 0.1927 69.9483 770.8124)" width="80.8" height="178.8"/>
					</defs>
					<clipPath id="SVGID_20_">
						<use xlink:href="#SVGID_19_"  style="overflow:visible;"/>
					</clipPath>
					<g class="st18">
						<text transform="matrix(0.9813 0.1927 -0.1927 0.9813 486.7466 319.366)" class="st6 st19">The</text>
					</g>
				</g>
				<g class="st17">
					<text transform="matrix(0.9813 0.1927 -0.1927 0.9813 482.5422 340.7799)" class="st6 st19">New Old</text>
				</g>
				<g class="st17">
					<text transform="matrix(0.9813 0.1927 -0.1927 0.9813 478.3362 362.202)" class="st6 st19">Galle</text>
				</g>
				<g class="st17">
					<text transform="matrix(0.9813 0.1927 -0.1927 0.9813 545.0834 375.307)" class="st6 st19">r</text>
				</g>
				<g class="st17">
					<text transform="matrix(0.9813 0.1927 -0.1927 0.9813 558.2739 377.8968)" class="st6 st19">y</text>
				</g>
				<g class="st17">
					<defs>
						
							<rect id="SVGID_21_" x="463" y="253.5" transform="matrix(0.1927 -0.9813 0.9813 0.1927 69.9483 770.8124)" width="80.8" height="178.8"/>
					</defs>
					<clipPath id="SVGID_22_">
						<use xlink:href="#SVGID_21_"  style="overflow:visible;"/>
					</clipPath>
					
						<rect x="404.5" y="320.9" transform="matrix(0.1927 -0.9813 0.9813 0.1927 20.8379 698.8242)" class="st20" width="61.1" height="31.7"/>
				</g>
				
					<rect x="411.3" y="318.6" transform="matrix(0.1927 -0.9813 0.9813 0.1927 28.5574 703.5804)" class="st21" width="61.1" height="31.7"/>
				
					<rect x="418" y="316.3" transform="matrix(0.1927 -0.9813 0.9813 0.1927 36.2757 708.3372)" class="st21" width="61.1" height="31.7"/>
				
					<rect x="424.8" y="314" transform="matrix(0.1927 -0.9813 0.9813 0.1927 43.9947 713.0934)" class="st21" width="61.1" height="31.7"/>
				<g class="st17">
					<defs>
						
							<rect id="SVGID_23_" x="463" y="253.5" transform="matrix(0.1927 -0.9813 0.9813 0.1927 69.9483 770.8124)" width="80.8" height="178.8"/>
					</defs>
					<clipPath id="SVGID_24_">
						<use xlink:href="#SVGID_23_"  style="overflow:visible;"/>
					</clipPath>
					
						<rect x="431.5" y="311.7" transform="matrix(0.1927 -0.9813 0.9813 0.1927 51.7134 717.8503)" class="st22" width="61.1" height="31.7"/>
				</g>
			</g>
		</g>
	</g>
	<g class="st3">
		
			<ellipse transform="matrix(0.9386 -0.3451 0.3451 0.9386 -20.0933 103.9364)" class="st11" cx="281.9" cy="108.4" rx="71.6" ry="60.9"/>
		<path d="M274.6,171.1c-27.3,0-51.7-14.2-60.4-37.8c-11.7-31.8,9.2-68.8,46.5-82.5c18.1-6.6,37.3-6.9,54-0.8
			c16.8,6.2,29.2,18,34.8,33.4l0,0c5.7,15.4,3.9,32.5-4.9,48c-8.8,15.6-23.6,27.8-41.7,34.4C293.6,169.5,283.9,171.1,274.6,171.1z
			 M289.3,46.6c-9.4,0-19,1.7-28.3,5.1c-36.8,13.5-57.4,50-45.9,81.2c11.5,31.2,50.8,45.6,87.6,32.1c17.9-6.6,32.5-18.6,41.1-34
			c8.7-15.3,10.4-32.1,4.8-47.2l0,0C343.1,68.7,331,57.1,314.4,51C306.5,48.1,298,46.6,289.3,46.6z"/>
	</g>
	<g class="st3">
		<rect x="350.6" y="577.3" class="st11" width="109.5" height="74.1"/>
		<path d="M460.1,651.9H350.6c-0.3,0-0.5-0.2-0.5-0.5v-74.1c0-0.3,0.2-0.5,0.5-0.5h109.5c0.3,0,0.5,0.2,0.5,0.5v74.1
			C460.6,651.6,460.4,651.9,460.1,651.9z M351.1,650.9h108.5v-73.1H351.1V650.9z"/>
	</g>
	<g class="st3">
		<g>
			<path d="M231.2,119.3c1.9-8.8,5.3-16.4,10.7-23.7c-2.3-0.3-4.6-0.6-6.9-0.9c2.1,14,5.6,27.5,10.6,40.7c1.2,3.1,5,3.8,6.9,0.9
				c7.7-11.6,15.5-23.3,23.2-34.9c-2.2,0-4.4,0-6.5,0c2.6,4.7,4.7,9.5,6.4,14.6c1,2.9,5.4,4,6.9,0.9c1-1.9,6.2-15.4,7.9-15.6
				c1-0.2,7.7,5.3,9.3,5.9c5.1,1.7,9.5,1.3,13.9-1.7c4-2.7,0.2-9.3-3.8-6.5c-9.8,6.7-14-8.2-22.3-5c-6,2.3-9,14.1-11.6,19.2
				c2.3,0.3,4.6,0.6,6.9,0.9c-1.9-5.8-4.2-11.1-7.2-16.4c-1.4-2.6-5-2.3-6.5,0c-7.7,11.6-15.5,23.3-23.2,34.9
				c2.3,0.3,4.6,0.6,6.9,0.9c-5.1-13.2-8.6-26.7-10.6-40.7c-0.5-3.6-5.3-3.2-6.9-0.9c-5.8,7.8-9.4,16-11.4,25.5
				C222.9,122.1,230.2,124.1,231.2,119.3L231.2,119.3z"/>
		</g>
	</g>
	<g class="st3">
		<g>
			<path d="M408.5,609.6c4.9,0,4.9-7.6,0-7.6C403.7,602,403.7,609.6,408.5,609.6L408.5,609.6z"/>
		</g>
	</g>
	<g class="st3">
		<g>
			<path d="M379.1,608.9c4.9,0,4.9-7.6,0-7.6C374.3,601.4,374.3,608.9,379.1,608.9L379.1,608.9z"/>
		</g>
	</g>
	<g class="st3">
		<g>
			<path d="M382.6,637.7c4.9,0,4.9-7.6,0-7.6C377.7,630.1,377.7,637.7,382.6,637.7L382.6,637.7z"/>
		</g>
	</g>
	<g class="st3">
		<g>
			<path d="M399.6,628.1c12.2,1,24.9-4.8,26.1-18.2c0.4-4.9-7.1-4.8-7.6,0c-0.8,9.1-11.1,11.2-18.5,10.6
				C394.7,620.1,394.8,627.7,399.6,628.1L399.6,628.1z"/>
		</g>
	</g>
	<g class="st3">
		<g>
			<path d="M429.7,629.5c2.5,0,5,0,7.5,0c4.9,0,4.9-7.6,0-7.6c-2.5,0-5,0-7.5,0C424.9,621.9,424.9,629.5,429.7,629.5L429.7,629.5z"
				/>
		</g>
	</g>
	<g class="st3">
		<g>
			<path d="M425.9,593.9c7.9,7.6,15.8,15.1,23.8,22.7c3.5,3.4,8.9-2,5.4-5.4c-7.9-7.6-15.8-15.1-23.8-22.7
				C427.8,585.2,422.4,590.5,425.9,593.9L425.9,593.9z"/>
		</g>
	</g>
</g>
<g id="Paso1" class="st2">
	<g class="st3">
		<g>
			<path d="M419.3,674.5H138.1c-19.7,0-35.7-16-35.7-35.7V55.7c0-19.7,16-35.7,35.7-35.7h281.2C439,20,455,36,455,55.7v583.1
				C455,658.5,439,674.5,419.3,674.5z M138.1,23.6C120.4,23.6,106,38,106,55.7v583.1c0,17.7,14.4,32.1,32.1,32.1h281.2
				c17.7,0,32.1-14.4,32.1-32.1V55.7c0-17.7-14.4-32.1-32.1-32.1H138.1z"/>
		</g>
		<g>
			<path d="M432.5,605.3H125V93.6h307.5V605.3z M128.6,601.7h300.3V97.2H128.6V601.7z"/>
		</g>
		<g>
			<path d="M349.8,69.3H215.1c-4,0-7.2-3.2-7.2-7.2c0-4,3.2-7.2,7.2-7.2h134.7c4,0,7.2,3.2,7.2,7.2C357,66.1,353.8,69.3,349.8,69.3z
				 M215.1,58.5c-2,0-3.6,1.6-3.6,3.6c0,2,1.6,3.6,3.6,3.6h134.7c2,0,3.6-1.6,3.6-3.6c0-2-1.6-3.6-3.6-3.6H215.1z"/>
		</g>
		<g>
			<path d="M282.1,660.5c-11.8,0-21.3-9.6-21.3-21.3c0-11.8,9.6-21.3,21.3-21.3c11.8,0,21.3,9.6,21.3,21.3
				C303.4,651,293.8,660.5,282.1,660.5z M282.1,621.5c-9.8,0-17.7,7.9-17.7,17.7c0,9.8,7.9,17.7,17.7,17.7c9.8,0,17.7-7.9,17.7-17.7
				C299.8,629.4,291.9,621.5,282.1,621.5z"/>
		</g>
	</g>
</g>
</svg>
