<?xml version="1.0" encoding="utf-8"?>
<!-- Generator: Adobe Illustrator 21.0.2, SVG Export Plug-In . SVG Version: 6.00 Build 0)  -->
<svg version="1.1" id="Capa_1" xmlns="http://www.w3.org/2000/svg" xmlns:xlink="http://www.w3.org/1999/xlink" x="0px" y="0px"
	 viewBox="0 0 200 200" style="enable-background:new 0 0 200 200;" xml:space="preserve">
<style type="text/css">
	.st0{fill:#FFFFFF;}
</style>
<path d="M107.4,192.4c-4.6,0-9.3,0-13.9,0c-2.1-0.3-4.3-0.6-6.4-1c-37.6-7.1-62.8-28.5-74.7-65.1c-1.9-5.9-2.6-12.1-3.9-18.2
	c0-5.2,0-10.4,0-15.5c0.2-0.6,0.6-1.2,0.7-1.9c4.3-37.9,29.8-68.4,66.4-78.8c5.8-1.7,11.9-2.4,17.9-3.5c4.6,0,9.3,0,13.9,0
	c2.1,0.3,4.3,0.6,6.4,1c37.8,7.1,63,28.7,74.8,65.4c1.8,5.7,2.6,11.8,3.8,17.8c0,4.9,0,9.8,0,14.7c-0.2,1-0.6,2.1-0.7,3.1
	c-3.8,36.2-29.5,67.4-64.5,77.8C120.8,190.2,114.1,191.1,107.4,192.4z M31.6,70.2c-8.6,20.1-8.6,40.5,0,60.5
	c11.5-3,22.3-5.8,33.1-8.6c0-14.4,0-29,0-43.2C53.7,76,42.8,73.2,31.6,70.2z M169.5,130.7c8.6-20.1,8.6-40.5,0-60.5
	c-11.4,3-22.3,5.8-33.1,8.6c0,14.4,0,29,0,43.2C147.3,125,158.2,127.8,169.5,130.7z M119.4,80.6c-12.9,0-25.1,0-37.9,0
	c0,13.3,0,26.5,0,39.8c12.9,0,25.1,0,37.9,0C119.4,107.1,119.4,93.9,119.4,80.6z M117.2,63.7c-2.4-12-4.7-23.3-11.2-33.4
	c-4.2-6.6-6.6-6.6-10.8-0.2c-6.6,10.1-9,21.6-11.2,33.6C95.2,63.7,105.9,63.7,117.2,63.7z M83.2,137.3c2.6,8.9,4.7,17,7.6,24.9
	c1.4,4,4.1,7.6,6.5,11.2c1.9,2.9,4.3,3.1,6.6,0.2c1.2-1.5,2.4-3,3.3-4.6c5.4-9.7,8-20.3,10-31.7C105.9,137.3,95.1,137.3,83.2,137.3z
	 M134.4,62.2c8.6-2.2,17.2-4.3,26.5-6.7c-10-12.7-21.5-21.2-35.6-26.1C128.3,40.2,131.2,50.7,134.4,62.2z M40.1,145.4
	c10,12.8,21.6,21.3,35.7,26.2c-3-10.8-6-21.4-9.1-32.7C58.1,140.9,49.5,143.1,40.1,145.4z M75.7,29.4c-14.1,5.1-25.8,13.4-35.6,26.3
	c9.5,2.3,18,4.4,26.5,6.5C69.7,50.9,72.7,40.4,75.7,29.4z M125.3,171.6c14.1-5.2,25.8-13.4,35.6-26.3c-9.4-2.3-18-4.4-26.4-6.5
	C131.2,150.2,128.3,160.7,125.3,171.6z"/>
<path class="st0" d="M107.4,192.4c6.6-1.3,13.4-2.2,19.8-4.1c34.9-10.3,60.7-41.5,64.5-77.8c0.1-1.1,0.5-2.1,0.7-3.1
	c0,28.3,0,56.5,0,85C164.1,192.4,135.8,192.4,107.4,192.4z"/>
<path class="st0" d="M8.6,108.3c1.3,6.1,2,12.3,3.9,18.2c11.9,36.5,37,58,74.7,65.1c2.1,0.4,4.3,0.6,6.4,1c-28.3,0-56.5,0-85,0
	C8.6,164.4,8.6,136.3,8.6,108.3z"/>
</svg>
